<?xml version="1.0" standalone="no"?>
<!DOCTYPE svg PUBLIC "-//W3C//DTD SVG 20010904//EN"
 "http://www.w3.org/TR/2001/REC-SVG-20010904/DTD/svg10.dtd">
<svg version="1.0" xmlns="http://www.w3.org/2000/svg"
 width="466.000000pt" height="354.000000pt" viewBox="0 0 466.000000 354.000000"
 preserveAspectRatio="xMidYMid meet">
<metadata>
Created by potrace 1.16, written by Peter Selinger 2001-2019
</metadata>
<g transform="translate(0.000000,354.000000) scale(0.100000,-0.100000)"
fill="#217280" stroke="none">
<path d="M3668 2843 c-22 -6 -23 -36 -2 -57 22 -23 41 -20 60 9 26 40 -1 63
-58 48z"/>
<path d="M3390 2643 c-16 -94 -30 -109 -109 -118 -34 -4 -63 -11 -66 -15 -6
-9 56 -30 88 -30 51 0 75 -27 88 -100 7 -38 15 -70 19 -70 8 0 27 60 36 118 4
23 7 42 8 42 0 0 26 3 56 6 126 13 162 44 51 44 -107 0 -121 8 -121 72 0 57
-16 128 -28 128 -5 0 -14 -34 -22 -77z"/>
<path d="M3659 2340 c-16 -80 -25 -95 -65 -110 -36 -13 -58 -35 -36 -35 44 -1
87 -62 94 -135 5 -45 23 -27 39 40 16 63 17 66 63 84 58 25 58 32 -1 42 -44 8
-48 12 -51 39 -3 25 -39 90 -43 75z"/>
<path d="M2140 2240 c-142 -10 -163 -14 -280 -62 -119 -48 -290 -186 -388
-313 -29 -36 -99 -43 -469 -44 l-223 -1 0 -30 0 -30 1358 -3 c746 -2 1371 -7
1387 -12 17 -4 47 -19 68 -33 21 -14 79 -42 129 -62 116 -46 123 -60 29 -60
-113 0 -162 -32 -68 -45 48 -7 117 -13 165 -14 49 -2 106 -61 130 -136 28 -86
28 -86 -157 -83 -151 3 -156 4 -159 24 -4 27 -69 104 -88 104 -8 0 -14 4 -14
8 0 18 -87 37 -158 35 -99 -3 -156 -43 -208 -147 l-21 -41 -644 -6 c-354 -3
-645 -7 -646 -7 -10 -6 0 -41 13 -46 9 -3 301 -6 649 -6 l634 0 10 -37 c6 -21
20 -53 31 -72 12 -18 19 -35 17 -38 -5 -4 -1549 -4 -1553 0 -2 2 8 26 22 54
74 148 2 303 -162 351 -48 14 -130 16 -138 3 -3 -4 -19 -11 -36 -14 -32 -7
-112 -83 -133 -127 -11 -22 -19 -25 -77 -28 -146 -6 -185 31 -139 132 40 88
40 89 154 85 90 -4 100 -2 103 14 9 46 1 47 -373 47 -371 0 -388 -2 -371 -45
5 -13 38 -15 226 -15 223 0 230 -1 211 -38 -40 -75 -62 -192 -42 -222 8 -12
40 -16 151 -18 l140 -4 0 -37 c0 -21 11 -60 25 -86 13 -27 22 -51 19 -54 -3
-3 -175 -6 -383 -7 -208 0 -383 -4 -389 -8 -24 -15 -13 -43 19 -50 55 -11
3635 -7 3664 4 17 7 25 16 23 28 -4 20 -113 28 -401 31 -93 0 -167 4 -165 9
26 51 48 107 48 122 0 31 18 34 190 36 91 1 171 2 178 3 20 2 15 113 -9 178
-50 133 -133 212 -304 292 -200 92 -201 93 -378 101 l-158 7 -77 75 c-179 174
-377 298 -524 327 -76 15 -312 20 -458 11z m405 -70 c114 -17 289 -112 457
-248 101 -82 108 -92 72 -93 -23 -1 -618 0 -711 1 -23 0 -23 1 -23 154 0 134
-2 155 -17 160 -32 12 -38 -13 -41 -164 l-4 -150 -41 0 c-473 -5 -707 -3 -707
4 0 18 234 226 255 226 5 0 16 6 24 14 18 16 118 56 201 81 30 9 60 18 65 20
25 8 407 4 470 -5z m-973 -772 c180 -99 88 -350 -120 -325 -100 12 -153 67
-160 167 -11 155 136 238 280 158z m1931 7 c33 -14 80 -64 106 -112 40 -77
-38 -204 -134 -219 -130 -19 -226 57 -225 180 0 28 51 128 70 136 8 4 24 12
35 18 29 16 107 14 148 -3z"/>
</g>
</svg>
