<?xml version="1.0" standalone="no"?>
<!DOCTYPE svg PUBLIC "-//W3C//DTD SVG 20010904//EN"
 "http://www.w3.org/TR/2001/REC-SVG-20010904/DTD/svg10.dtd">
<svg version="1.0" xmlns="http://www.w3.org/2000/svg"
 width="446.000000pt" height="354.000000pt" viewBox="0 0 446.000000 354.000000"
 preserveAspectRatio="xMidYMid meet">
<metadata>
Created by potrace 1.16, written by Peter Selinger 2001-2019
</metadata>
<g transform="translate(0.000000,354.000000) scale(0.100000,-0.100000)"
fill="#fcf5e8" stroke="none">
<path d="M2193 2748 c-26 -16 -70 -47 -98 -68 -27 -21 -64 -46 -81 -57 -17
-10 -77 -52 -134 -93 -56 -41 -154 -111 -219 -155 -64 -44 -185 -129 -270
-190 -165 -118 -237 -169 -443 -312 -181 -126 -233 -172 -224 -201 11 -34 32
-25 130 56 22 17 43 32 48 32 11 0 10 -917 -1 -925 -5 -3 -95 -6 -200 -8 -194
-2 -221 -7 -208 -41 7 -18 -166 -17 2265 -17 672 0 1227 3 1232 6 6 3 10 15
10 26 0 22 13 21 -221 24 -98 1 -182 6 -188 9 -15 10 -16 906 0 906 12 0 103
-60 107 -72 8 -19 42 -7 42 15 0 27 -50 77 -139 138 -35 24 -93 65 -130 92
-36 26 -104 74 -151 107 -47 33 -125 89 -175 125 -101 73 -139 100 -240 170
-38 26 -98 70 -132 97 -35 26 -65 48 -68 48 -6 0 -62 40 -315 223 -144 104
-138 102 -197 65z m119 -91 c31 -23 111 -80 178 -127 146 -101 243 -172 250
-181 3 -4 55 -40 115 -81 121 -81 357 -249 365 -258 3 -4 34 -26 70 -50 36
-24 102 -73 148 -109 l82 -65 0 -477 c0 -308 -4 -479 -10 -481 -5 -2 -219 -2
-476 0 l-465 2 2 403 2 402 -307 0 -307 0 -2 -405 c-2 -317 -5 -405 -14 -404
-7 1 -229 2 -493 2 l-480 2 1 478 c1 262 5 484 9 492 8 15 34 34 265 200 61
43 121 87 135 98 14 10 68 48 120 84 52 35 133 91 180 123 47 32 96 68 110 80
14 12 79 59 144 104 66 45 132 91 146 104 14 12 41 31 60 41 19 11 51 30 70
42 44 29 36 30 102 -19z m197 -1404 c0 -181 -4 -350 -7 -377 l-7 -50 -230 3
c-126 1 -232 4 -234 7 -3 3 -4 727 -2 742 1 1 109 2 241 2 l240 0 -1 -327z"/>
<path d="M2015 2346 c-11 -8 -16 -19 -12 -30 6 -14 33 -16 245 -16 251 0 274
4 258 45 -8 21 -462 23 -491 1z"/>
<path d="M1963 2100 c-28 -11 -30 -31 -5 -47 22 -13 619 -18 667 -5 38 11 47
47 13 56 -36 9 -650 6 -675 -4z"/>
<path d="M1227 1633 c-14 -14 -8 -360 7 -372 9 -8 88 -11 267 -9 l254 3 0 190
0 190 -261 3 c-143 1 -263 -1 -267 -5z m225 -180 c0 -67 -3 -126 -6 -132 -5
-8 -74 -9 -158 -2 -10 1 -10 245 -1 255 4 4 43 5 86 4 l79 -3 0 -122z m243 -8
l0 -130 -85 0 -85 0 -3 119 c-4 156 -9 147 90 144 l83 -3 0 -130z"/>
<path d="M2769 1638 c0 -2 -1 -88 -1 -193 l-1 -190 254 -2 c164 -1 258 2 266
9 18 14 18 349 1 366 -10 10 -516 20 -519 10z m231 -193 l0 -135 -74 4 c-40 2
-79 7 -86 11 -11 7 -13 225 -2 248 2 4 39 7 83 7 l79 0 0 -135z m238 3 c3
-148 8 -141 -108 -136 l-65 3 -3 119 c-4 156 -9 147 90 144 l83 -3 3 -127z"/>
</g>
</svg>
