<?xml version="1.0" standalone="no"?>
<!DOCTYPE svg PUBLIC "-//W3C//DTD SVG 20010904//EN"
 "http://www.w3.org/TR/2001/REC-SVG-20010904/DTD/svg10.dtd">
<svg version="1.0" xmlns="http://www.w3.org/2000/svg"
 width="344.000000pt" height="354.000000pt" viewBox="0 0 344.000000 354.000000"
 preserveAspectRatio="xMidYMid meet">
<metadata>
Created by potrace 1.16, written by Peter Selinger 2001-2019
</metadata>
<g transform="translate(0.000000,354.000000) scale(0.100000,-0.100000)"
fill="#fcf5e8" stroke="none">
<path d="M1339 3045 c-269 -74 -502 -344 -575 -665 -85 -373 73 -821 324 -920
83 -33 84 -35 57 -165 -12 -60 -32 -164 -44 -230 -12 -66 -26 -140 -31 -165
-42 -206 -35 -293 26 -348 21 -17 47 -32 58 -32 12 0 31 -3 42 -6 16 -4 31 5
61 35 70 73 100 151 142 371 12 58 25 128 31 155 29 139 50 253 50 276 0 34
25 55 96 80 133 47 288 168 372 290 163 240 198 644 77 894 -62 126 -187 294
-252 337 -146 96 -301 129 -434 93z m248 -81 c189 -63 344 -256 413 -514 81
-306 -52 -714 -276 -846 -23 -14 -44 -33 -47 -43 -12 -46 -169 -106 -256 -98
-33 3 -62 3 -65 0 -12 -13 16 -43 41 -43 22 0 24 -3 18 -22 -4 -13 -11 -52
-15 -88 -4 -36 -19 -112 -33 -170 -14 -58 -31 -134 -37 -170 -7 -36 -16 -78
-20 -95 -4 -16 -14 -57 -21 -90 -15 -71 -49 -154 -73 -178 -20 -20 -66 -23
-84 -5 -15 15 -16 150 -1 232 6 34 19 106 29 161 10 55 28 152 40 215 25 136
37 187 52 218 18 34 -1 55 -58 68 -106 24 -171 71 -244 180 -28 40 -50 76 -50
79 0 3 -8 24 -19 48 -107 241 -91 541 41 799 49 95 224 279 302 317 155 75
241 86 363 45z"/>
<path d="M1284 2824 c-21 -15 -40 -30 -42 -35 -2 -5 -9 -9 -15 -9 -22 0 -166
-160 -202 -224 -82 -148 -116 -441 -71 -626 75 -308 271 -439 594 -395 56 7
86 24 70 40 -2 3 -62 7 -133 10 -199 9 -236 21 -320 102 -113 108 -150 224
-150 468 1 167 1 172 34 265 40 115 104 213 184 283 108 95 127 115 127 131 0
24 -32 19 -76 -10z"/>
<path d="M1649 2612 c-46 -49 -150 -158 -231 -243 -214 -225 -252 -279 -197
-279 24 0 559 534 559 557 0 23 -20 53 -34 53 -7 0 -51 -40 -97 -88z"/>
<path d="M1538 2248 c-136 -131 -168 -169 -179 -215 -10 -46 -8 -48 28 -29 27
13 268 260 301 308 16 23 15 24 -18 32 -21 5 -40 -9 -132 -96z"/>
<path d="M2243 2858 c-45 -58 -53 -115 -20 -146 31 -30 59 -28 96 7 39 37 39
52 -2 71 -19 9 -33 24 -35 37 -4 30 -26 47 -39 31z"/>
<path d="M2395 2400 c-106 -51 -145 -126 -152 -290 -4 -103 32 -251 77 -307
25 -32 25 -59 2 -98 -10 -16 -33 -77 -51 -135 -18 -58 -44 -136 -58 -175 -14
-38 -33 -104 -44 -145 -10 -41 -34 -124 -53 -185 -74 -233 -87 -282 -95 -352
-12 -104 -7 -122 47 -145 150 -67 258 87 407 582 8 25 28 86 46 135 17 50 40
124 50 165 32 121 61 214 72 228 6 8 38 27 71 44 142 71 221 182 260 364 18
83 -53 203 -153 258 -124 67 -343 96 -426 56z m229 -71 c16 -5 39 -9 50 -9 12
0 37 -11 56 -23 19 -13 46 -27 60 -31 87 -23 133 -140 98 -245 -24 -73 -135
-221 -165 -221 -18 0 -6 75 27 165 4 11 12 52 19 90 7 39 17 91 22 117 12 52
7 68 -21 68 -26 0 -31 -11 -41 -93 -10 -88 -33 -186 -68 -292 -18 -55 -26 -65
-58 -65 -27 0 -31 23 -37 255 -3 94 -5 171 -5 173 -1 1 -10 2 -21 2 -19 0 -20
-7 -20 -205 0 -199 -1 -205 -22 -216 -17 -9 -24 -9 -33 5 -7 9 -24 16 -38 16
-67 0 -112 111 -111 275 0 160 44 236 141 247 42 5 134 -2 167 -13z m-179
-599 c3 -5 15 -10 26 -10 17 0 40 -33 43 -62 1 -4 7 -13 14 -19 18 -19 14 -50
-18 -134 -5 -11 -16 -49 -25 -85 -9 -36 -25 -84 -36 -107 -10 -24 -19 -47 -19
-52 0 -23 -66 -27 -136 -10 -56 15 -59 19 -35 71 20 43 33 84 91 273 17 55 36
110 42 123 12 23 42 30 53 12z m-145 -545 c23 -8 53 -15 66 -15 34 0 38 -16
16 -73 -11 -29 -32 -83 -47 -122 -14 -38 -32 -86 -40 -105 -7 -19 -25 -67 -39
-105 -37 -100 -76 -145 -126 -145 -21 0 -41 3 -43 8 -11 17 27 187 83 367 12
39 25 84 30 100 5 17 12 41 16 55 15 53 23 56 84 35z"/>
<path d="M528 1903 c-22 -43 -30 -96 -20 -132 7 -21 12 -55 12 -75 0 -29 4
-36 19 -36 11 0 21 -6 24 -12 2 -7 8 -10 12 -6 4 4 0 14 -9 23 -21 21 -22 57
-1 49 17 -7 23 94 6 112 -5 5 -11 24 -13 43 -3 32 -21 52 -30 34z"/>
</g>
</svg>
