<?xml version="1.0" standalone="no"?>
<!DOCTYPE svg PUBLIC "-//W3C//DTD SVG 20010904//EN"
 "http://www.w3.org/TR/2001/REC-SVG-20010904/DTD/svg10.dtd">
<svg version="1.0" xmlns="http://www.w3.org/2000/svg"
 width="510.000000pt" height="354.000000pt" viewBox="0 0 510.000000 354.000000"
 preserveAspectRatio="xMidYMid meet">
<metadata>
Created by potrace 1.16, written by Peter Selinger 2001-2019
</metadata>
<g transform="translate(0.000000,354.000000) scale(0.100000,-0.100000)"
fill="#fcf5e8" stroke="none">
<path d="M3986 2974 c-3 -9 -6 -30 -6 -49 0 -64 -23 -99 -77 -113 -26 -8 -54
-16 -61 -18 -23 -7 -4 -22 36 -29 20 -3 55 -16 77 -28 39 -22 40 -25 43 -80 3
-64 14 -73 31 -24 30 81 47 101 98 117 70 21 68 34 -5 43 -63 9 -64 9 -83 54
-10 24 -19 67 -19 94 0 49 -20 69 -34 33z"/>
<path d="M1320 2936 c0 -13 5 -28 11 -31 15 -10 8 -156 -8 -161 -7 -2 -20 -6
-28 -9 -20 -6 -9 -30 21 -43 19 -9 24 -19 24 -51 0 -24 6 -44 17 -52 17 -15
73 -126 73 -146 0 -35 49 -12 50 24 1 38 71 154 132 218 37 38 68 76 68 83 0
17 -23 15 -51 -6 -55 -41 -150 -93 -159 -87 -5 3 -10 14 -10 23 0 30 -56 168
-86 213 -35 51 -54 60 -54 25z"/>
<path d="M756 2651 c-9 -14 1 -31 20 -31 23 0 63 -30 139 -103 57 -56 91 -79
183 -123 62 -30 117 -54 123 -54 13 0 11 -17 -3 -27 -8 -5 4 -10 32 -13 32 -4
46 -10 48 -22 3 -16 -11 -17 -170 -15 -127 1 -184 -2 -213 -12 -94 -33 -122
-44 -189 -76 -39 -18 -109 -49 -156 -68 -107 -43 -110 -59 -15 -70 89 -10 160
-2 216 22 27 12 71 21 114 22 82 3 208 25 244 43 14 8 55 17 91 20 36 4 78 10
94 13 23 5 27 3 25 -12 -4 -17 -37 -39 -134 -91 -41 -22 -123 -79 -214 -148
-118 -91 -291 -352 -291 -441 0 -46 9 -44 42 8 107 167 210 286 298 347 30 21
72 54 94 74 47 45 57 39 29 -17 -43 -86 -62 -237 -30 -237 15 0 78 102 137
220 23 47 47 90 53 95 7 6 18 22 25 36 16 30 67 63 83 54 12 -8 11 -153 -1
-205 -5 -19 -18 -71 -29 -115 -11 -44 -25 -109 -31 -145 -7 -36 -16 -78 -20
-95 -4 -16 -13 -70 -20 -120 -24 -186 -75 -405 -131 -562 -37 -103 -45 -148
-30 -158 15 -9 65 45 81 87 17 47 30 78 45 113 8 17 21 59 30 95 9 36 20 79
25 95 5 17 14 58 21 93 17 84 33 79 27 -8 -15 -210 55 -427 151 -467 37 -16
301 -14 455 3 56 7 58 6 51 -14 -4 -16 -2 -22 9 -23 9 -1 28 -3 44 -5 15 -2
133 -6 263 -9 131 -2 249 -9 263 -15 34 -12 36 -50 4 -50 -13 -1 -430 -2 -928
-4 -498 -2 -915 -7 -928 -11 -16 -5 -22 -14 -20 -29 l3 -21 1825 -3 c1873 -3
2027 -1 2037 25 11 29 -16 32 -249 34 -159 1 -242 5 -252 13 -28 21 -106 129
-106 147 0 38 52 130 103 182 88 90 126 204 78 234 -23 15 -434 11 -526 -4
-108 -19 -261 -90 -323 -150 -28 -27 -101 -73 -116 -73 -17 0 -22 29 -8 46 13
15 28 77 62 259 17 94 37 199 45 235 7 36 21 112 30 170 24 153 28 165 51 162
351 -49 1182 -43 1214 8 14 21 13 22 -18 62 -29 38 -316 310 -335 318 -19 8
-69 42 -101 68 -86 70 -400 182 -603 217 -24 4 -45 11 -49 16 -40 65 -460 45
-649 -31 -11 -4 -47 -18 -80 -30 -118 -44 -185 -75 -265 -123 -36 -22 -87 -52
-115 -66 -27 -15 -59 -32 -70 -38 -11 -6 -36 -18 -55 -27 -19 -8 -52 -26 -73
-40 -40 -27 -57 -31 -72 -18 -6 5 -34 14 -63 21 -28 7 -70 21 -92 32 -21 10
-47 19 -57 19 -21 0 -89 23 -99 33 -4 4 -17 7 -28 7 -23 0 -92 22 -102 33 -4
4 -20 7 -35 7 -85 0 16 52 111 57 30 1 114 2 185 1 262 -2 347 0 376 12 32 14
34 37 3 32 -34 -7 -58 -4 -134 13 -41 9 -94 14 -117 11 -25 -3 -45 -1 -49 5
-7 13 16 30 29 22 4 -3 16 2 25 10 9 8 41 18 71 22 67 9 176 48 214 76 l28 20
42 -21 c34 -17 50 -20 77 -13 46 12 47 26 5 42 -45 16 -36 31 18 31 44 1 83
22 73 39 -6 9 -90 30 -151 37 -37 4 -172 -12 -280 -33 -142 -27 -160 -31 -205
-47 -25 -9 -52 -16 -60 -16 -29 0 -262 -122 -302 -158 -32 -29 -52 -38 -97
-44 -31 -4 -67 -9 -81 -12 -26 -4 -90 17 -90 31 0 30 -168 173 -203 173 -16 0
-134 58 -141 69 -9 13 77 -10 95 -26 14 -12 19 -12 34 3 38 39 -27 67 -195 84
-52 5 -116 12 -141 16 -30 4 -49 2 -53 -5z m1166 -234 c-6 -7 -27 -19 -47 -27
-19 -7 -35 -17 -35 -22 0 -4 -7 -8 -15 -8 -8 0 -15 5 -15 10 0 6 4 10 10 10 5
0 31 13 56 30 47 29 67 33 46 7z m1378 -5 c0 -5 -46 -33 -102 -62 -122 -63
-162 -90 -247 -164 -36 -31 -70 -56 -77 -56 -7 0 -26 -16 -42 -36 l-29 -35
-134 10 c-73 6 -161 11 -195 11 -35 0 -65 4 -68 8 -5 8 45 52 59 52 3 0 26 15
52 34 27 18 64 40 83 49 19 9 67 30 105 47 65 30 143 57 225 80 19 5 59 16 89
25 30 8 90 18 135 21 45 4 88 10 96 15 20 11 50 11 50 1z m130 -27 c7 -8 17
-15 22 -15 26 0 306 -273 367 -358 32 -43 30 -49 -11 -32 -13 5 -97 14 -188
20 -91 6 -259 19 -375 30 -115 12 -236 22 -267 23 -60 2 -83 13 -58 27 9 5 45
32 80 60 76 61 216 154 245 164 11 3 51 26 90 51 78 51 78 51 95 30z m282 -59
c91 -24 241 -76 278 -96 19 -10 49 -25 67 -33 98 -47 392 -283 373 -300 -5 -5
-162 19 -285 43 -33 6 -88 15 -123 20 -70 9 -88 21 -135 90 -17 25 -79 94
-139 154 -154 155 -153 153 -36 122z m-2547 -136 c-3 -5 -17 -10 -31 -10 -14
0 -22 4 -19 10 3 6 17 10 31 10 14 0 22 -4 19 -10z m-125 -18 c0 -17 -73 -44
-95 -36 -23 9 -18 24 9 24 14 0 28 5 31 10 7 12 55 13 55 2z m620 -100 c53
-56 102 -130 134 -199 16 -35 33 -63 37 -63 3 0 18 -18 32 -39 20 -30 31 -38
46 -34 25 6 21 36 -22 148 -32 81 -42 135 -26 135 5 0 51 -41 102 -90 51 -50
111 -103 133 -120 23 -16 84 -78 137 -139 128 -145 194 -190 153 -105 -8 16
-22 47 -32 69 -25 57 -115 171 -160 204 -22 15 -46 36 -54 46 -14 17 -13 18
14 11 26 -6 28 -5 17 8 -14 17 -7 36 15 36 8 0 14 7 14 15 0 22 58 12 145 -24
109 -47 395 -118 540 -135 131 -16 261 -29 340 -34 58 -5 89 -11 88 -18 -1 -6
-7 -45 -12 -85 -6 -41 -16 -99 -21 -129 -6 -30 -15 -82 -20 -115 -6 -33 -14
-80 -19 -105 -5 -25 -14 -67 -19 -95 -5 -27 -26 -112 -46 -189 -20 -76 -36
-147 -36 -157 0 -24 -56 -65 -100 -72 -19 -4 -66 -13 -105 -22 -53 -11 -158
-16 -426 -20 -196 -3 -378 -10 -405 -16 -84 -18 -203 -24 -366 -19 -146 5
-158 6 -181 28 -37 35 -67 130 -79 245 -16 165 8 643 33 671 5 6 9 29 9 53 0
23 4 64 9 90 6 26 12 84 15 128 5 74 12 132 22 163 8 26 59 13 94 -26z m920
-72 c124 0 609 -38 690 -54 l55 -11 0 -55 0 -55 -55 -3 c-30 -2 -80 2 -110 8
-30 6 -109 17 -175 25 -258 32 -535 95 -574 131 -16 15 24 31 57 23 20 -5 71
-9 112 -9z m-522 -21 c30 -10 66 -51 56 -62 -8 -8 -97 46 -102 61 -5 15 6 15
46 1z m1552 -49 c30 -6 111 -14 180 -20 203 -16 319 -29 415 -46 386 -69 355
-89 -121 -81 -347 6 -653 24 -671 38 -16 14 -18 116 -2 121 18 6 138 -2 199
-12z m180 -895 c14 -17 66 -20 75 -5 9 15 57 13 53 -2 -3 -7 -45 -44 -94 -81
-249 -190 -330 -231 -539 -268 -70 -13 -1145 -23 -1145 -11 0 13 123 22 304
23 83 0 243 4 356 9 287 13 330 28 618 218 154 101 337 159 372 117z m301 -15
c27 -15 24 -32 -13 -67 -39 -36 -204 -163 -213 -163 -3 0 -29 -15 -58 -33 -29
-18 -83 -43 -122 -57 -106 -37 -202 -86 -241 -125 -39 -40 -2 -35 -349 -38
-248 -2 -345 4 -345 19 0 44 2 44 222 44 115 0 228 4 251 9 23 5 78 14 122 21
143 21 286 75 341 129 38 38 122 101 133 101 5 0 15 7 22 16 15 19 150 123
182 141 27 16 43 16 68 3z m-151 -275 c-10 -13 -10 -19 4 -33 9 -10 16 -23 16
-29 0 -21 56 -113 77 -126 7 -4 13 -11 13 -15 0 -11 -568 -13 -575 -2 -3 5 -1
10 5 10 6 0 35 10 63 23 29 13 88 38 132 57 44 18 123 54 175 80 111 56 106
54 90 35z"/>
<path d="M2647 1343 c-4 -3 -7 -14 -7 -24 0 -9 -13 -28 -28 -41 -16 -13 -32
-35 -35 -49 -3 -13 -9 -34 -12 -46 -5 -17 -3 -23 7 -23 8 0 24 -10 36 -23 41
-44 169 -1 145 49 -71 143 -91 172 -106 157z"/>
<path d="M1957 1252 c-18 -20 -23 -72 -7 -72 6 0 10 -9 10 -19 0 -22 10 -31
59 -48 23 -8 41 -9 52 -2 10 5 27 9 38 9 23 0 43 102 23 122 -16 16 -90 22
-107 8 -12 -10 -16 -9 -21 4 -8 21 -27 20 -47 -2z"/>
<path d="M1104 2319 c-18 -7 -18 -8 1 -8 11 -1 30 -4 43 -7 12 -4 22 -2 22 4
0 13 -42 20 -66 11z"/>
</g>
</svg>
