<?xml version="1.0" standalone="no"?>
<!DOCTYPE svg PUBLIC "-//W3C//DTD SVG 20010904//EN"
 "http://www.w3.org/TR/2001/REC-SVG-20010904/DTD/svg10.dtd">
<svg version="1.0" xmlns="http://www.w3.org/2000/svg"
 width="428.000000pt" height="354.000000pt" viewBox="0 0 428.000000 354.000000"
 preserveAspectRatio="xMidYMid meet">
<metadata>
Created by potrace 1.16, written by Peter Selinger 2001-2019
</metadata>
<g transform="translate(0.000000,354.000000) scale(0.100000,-0.100000)"
fill="#fcf5e8" stroke="none">
<path d="M1179 2971 c-38 -32 -62 -90 -75 -183 l-6 -48 -127 0 c-166 0 -214
-21 -257 -115 -5 -11 -11 -442 -14 -1000 l-5 -980 -94 -5 c-96 -5 -133 -22
-105 -50 14 -14 3284 -14 3298 0 7 7 7 16 0 28 -9 14 -31 17 -137 20 l-126 3
-1 961 c0 994 -1 1007 -43 1069 -36 53 -67 63 -207 69 -118 5 -125 6 -123 25
4 35 -18 129 -40 168 -29 51 -62 67 -140 67 -100 0 -146 -58 -162 -203 l-6
-57 -682 2 -682 3 -5 70 c-9 122 -66 185 -169 185 -48 0 -62 -5 -92 -29z m140
-46 c43 -22 61 -70 61 -162 0 -135 -29 -193 -95 -193 -73 0 -105 57 -105 190
0 148 53 210 139 165z m1711 2 c44 -35 54 -68 52 -180 -2 -92 -5 -114 -22
-138 -36 -49 -110 -49 -155 1 -28 31 -35 192 -10 256 24 63 94 95 135 61z
m-1922 -259 c7 -7 12 -20 12 -30 0 -32 47 -94 83 -112 125 -59 200 -16 243
141 2 9 165 11 685 10 l682 -2 12 -48 c45 -177 274 -159 319 26 l6 27 102 0
c119 0 156 -11 186 -55 l22 -31 -2 -814 -3 -813 -193 2 c-193 1 -232 -4 -232
-34 0 -24 16 -26 224 -27 l205 0 3 -126 c2 -70 2 -130 0 -134 -2 -5 -609 -8
-1350 -8 l-1347 0 -3 938 c-2 1036 -3 1023 56 1072 36 30 38 30 157 30 81 0
125 -4 133 -12z"/>
<path d="M927 2233 c-4 -3 -7 -17 -7 -30 l0 -23 1228 2 1227 3 0 25 0 25
-1221 3 c-671 1 -1224 -1 -1227 -5z"/>
<path d="M1970 1859 c-35 -22 -156 -140 -328 -321 -51 -54 -96 -98 -100 -98
-3 0 -52 45 -107 100 -103 103 -135 118 -135 66 0 -25 229 -266 252 -266 7 0
54 46 103 101 50 56 150 162 223 236 125 126 160 172 146 194 -8 13 -15 11
-54 -12z"/>
<path d="M2675 1639 c-110 -109 -202 -199 -205 -199 -3 0 -45 41 -94 90 -49
50 -95 90 -102 90 -7 0 -14 5 -16 12 -7 19 -38 0 -38 -23 0 -23 235 -269 257
-269 7 0 59 48 115 108 57 59 156 162 221 228 98 100 118 126 112 143 -14 46
-47 23 -250 -180z"/>
<path d="M930 955 c-25 -31 -4 -45 67 -46 291 -4 1524 1 1532 6 17 10 13 42
-5 49 -9 3 -368 6 -799 6 -680 0 -784 -2 -795 -15z"/>
</g>
</svg>
