<?xml version="1.0" encoding="UTF-8"?>
<svg id="Layer_1" xmlns="http://www.w3.org/2000/svg" version="1.1" viewBox="0 0 147.8 146.9">
  <!-- Generator: Adobe Illustrator 30.1.0, SVG Export Plug-In . SVG Version: 2.1.1 Build 136)  -->
  <path d="M120,0c1,1.1,7.4,3.3,9.1,3.8,3.7,1.1,7.9,0,12.5,2.8s2.1,6.3.9,9.5-.8,2.6,0,4c1.1,2.2,3.6,8.4,3.8,10.6l.7,12v4c0,2.3-.2,4.5-.4,6.8-.8.6-.8,1.3-.7,2.2.2,2.1,0,4.3.7,6.3s1.4,3.4.9,5.3-1.8,4.2-2.9,6.2-3.3,4.9-5.5,6.9-3.5,3.3-5.9,6.3-2.7,3.8-4.3,5.5l-8.1,8.7c-1.2,1.3-2.5,2.4-3.8,3.6-4.9,4.5-10.6,7.4-16.7,9.7s-8.4,3.8-12.7,5.8-6.5,3.5-10.1,4.7-9,2.2-13.5,3.3l-5.7,1.4c-3.4,1-6.8,1.5-10.3,1.9s-2.3.3-3.3.7l-7.2,2.7c-5.4,2-10.8,3.4-16.5,4.5s-4.4,1-6.4,2c-3.5,1.8-6.8,3.6-10.4,5.1s-3.3.2-4-1.3v-1.7c.7-2.7,3.3-3.1,6.1-3.5,8.1-1.1,18.4-3.9,26.2-6.5s10-2.7,10.9-4.5,1.4-.4,2-.7c4.1-2.5,7.6-5.5,10.9-9s6.7-7.4,9.7-11.3,4.9-6.5,6.9-12.1l2-5.7c2.2-6.1,3.4-15.1,1.8-21.6s-3.1-9.8-5.3-14.5-2-4.2-2.6-6.5c-1.5-5.5-1.2-10.7-2.1-15.2l-1-5c-.7-3.4-2.2-8.7.9-11.6s2.3-.9,3.3-1.5c2.2-1.3,3-3.4,5-4.7s6.8-2,7.7-2.4c2.4-1.2,4.4-2.5,6.8-3.8,3.9-2.3,4.1.4,9-1.5s2.6-.9,3.8-.7,2.1,1.8,2.2,2.9l.3,4.3.5,4.8c.6,5,5.1,9.8,5.8,17.9s-.3,4.3.5,6.6l2.3-7.2c.2-.8.4-1.8.5-2.6l1-9.1c.2-2.1.6-4.3.5-6.3l-.5-8.7c-.1-2.1,2.6-3.3,4-3.6h1ZM117.3,64.5v1c1.7-6.2,2-12.6,2.4-19.1s.5-9-.6-13.6-1.2-5-1.3-7.6c-.2-5.3.8-11.9.6-15.1l-.5-8.4c-1.1.3-1.8,1.5-1.6,2.7.5,4.1.6,8,.2,12.2l-.8,9.4c-.3,3-.5,5.9-.3,8.9l.2,2.5.8,10.6.4,6c.3,3.5.7,6.9.6,10.6ZM119.9,64.1c2.3-9.4,3.7-8.7,3.8-20.7,0-3.5-.9-6.6-2-9.8s-.4-6.4,0-9.6,1.3-8.7,2.3-13.1.9-5.7-.2-6.7-2.7-2-4.5-2.7c-.2,1.3-.1,2.3,0,3.4.9,8.9-.6,12.9-.2,20.8.2,2.9,1.6,7.4,2,11.6s-.1,7.2-.2,10.8c-.2,7.2-1.1,13.5-3,20.8.7-.5,1.2-1.3,1.4-2.2l.7-2.6ZM109.6,32.7c.2-4.2-1.6-9.1-3.5-12.8-2.7-5.4-2.8-8.9-3.1-14.9s-.2-2.4-1.1-2.7-2.2.3-3.2.6c0,1.2.3,2.4.5,3.6l2.7,12.7,2.2,10.2c.6,2.8,1.2,5.5,1.4,8.4l.6,3.2c1.5,1.5,2.8,3,4.3,4.8,1.6-5.9-1.3-5.2-.9-13.1ZM95.9,60.4c.9-3,.7-8.2,1-10.9l1.1-11c0-.4.6-1.2,1-1.3s.9,0,1.6,0c.2-2.8-.1-5.6-.5-8.4l-1.2-9.6c-.4-3.5-1.3-6.8-1.6-10.3s-.4-4-1.3-5.7l-3.3.2c-1.1,0-2.1.4-3.2,1,.2,2.3.4,4.2.7,6.4l.4,2.6.7,4.3c.6,3.3,1.1,6.5,1.4,9.9l.3,3.8,1.2,8.5.7,5.3.6,6.5.4,8.7ZM102.5,111.8l3.1-3.1c1.6-1.7,3-3.6,4.1-5.7l5.8-10.9c2.1-4,3.9-8,5.5-12.2s.7-1.7,1-2.6l1.8-5.6,1.5-5.3c1.3-4.4,2.1-8.8,2.3-13.4l.5-11.7c.1-2.3.2-4.5.5-6.7,1.2-8.9.9-16.9-1.4-25.6l-1.1-4.2c-.1-.4-.7-.9-1.1-1,.4,2,.7,3.6.3,5.5l-1.6,8.4-1.2,8.5c-1,7.4,1.2,8.7,1.8,12.8.9,6.2.3,13.4-1.5,19.3l-3.1,10.2c-.9,3-1.4,6.1-2.5,9.2s-1.3,3.4-1.7,5.1c-1.3,4.8-2.7,9.2-4.8,13.7s-5.3,10.4-9.4,14.8-.7.8-1,1.3c.7-.1,1.7-.4,2.2-.6ZM123.1,81.8c.4-1,.9-2,1.3-2.9,2.3-4.5,3.7-9.2,4.9-14.1l1.7-7.4c1.3-5.6,2-11.1,2.8-16.9.3-6.6,1.1-13.1,1.8-19.7l.6-6.2.7-6.5.2-2.2-5.2-.4c-1.4-.1-2.9-.5-4.3-.9,1,4.2,2.1,7.9,2.6,11.9.9,6.5.7,12.8-.2,19.3s-.4,7.3-.5,11.1c-.4,11.1-1.6,17.1-5,27.7-2.9,9-6.9,17.3-11.6,25.5-1.5,3.3-3.3,6-5.5,8.9,2.1-1.1,3.7-2.7,5.1-4.5l1.5-2.8,4-8.2c1.9-3.9,3.8-7.6,5.4-11.7ZM87.5,79.6c-.3,1.5-.8,2.9-.8,4.5l2-3.4c2.1-3.5,4-7.1,4.9-11.1s1.3-9.4.9-14.1l-.8-10-.7-5.8c-.6-4.7-1.2-9.3-1.6-14s-1.1-6.8-1.6-11-.7-4-.9-6l-.4-3.5-5.7,3,.9,3.5c.4,1.5.8,2.9,1.4,4.4,2.3,6.4,2.2,9.9,3,16.5s.6,6.3.5,9.6c-.3,10.7,2.4,12.2,1.2,26.9s-.5,3.4-.9,5l-1.2,5.5ZM139.4,44.9l3.7-9.7c.8-2.1,1.4-4.2,1.4-6.5s-2.4-6.7-3-8.2c-1.8-3.9,1.3-6.1,1.2-10.1s-2.4-3.4-4.4-3.9c-.2,1-.4,1.8-.5,2.8l-1.7,18.2-.5,5.7-.4,5c-.3,4.4-.7,8.6-1.6,12.9l-2.4,11.3c1.8-2.8,2.9-5.7,4.3-8.6s2.7-5.9,3.9-9.1ZM85.8,81.7l1.4-6.3c1.5-6.9,2.1-13.5,1.1-20.6l-.2-1.9-.6-4.3c-.6-3.7.2-8.6-.4-14.2l-.3-2.9c-.5-4.6-.8-9.2-2.3-13.6s-1.8-5.5-2.4-8.3-.6-.9-.9-.9c-1.3.2-4,.7-5.4,1.6-.2,2.2-.5,4.3-.1,6.5s.3,3.9.8,5.6l1.4,5.1,1.8,6.8c.8,2.9,1.4,5.8,2.4,8.6s1.8,7.6,2.3,11.6l.8,6.1c.4,2.8,1,5.4,1.1,8.2.2,6.2-.9,12.1-2.6,18,1.2-1.5,1.7-3.2,2.1-5.1ZM104.7,39.8l-.2-2.1c-.4-3.2-1-6.3-1.7-9.5l-2.6-11.9-1.4-7c-.2,1.8.3,3.5.6,5.3.6,3.3,1,6.5,1.4,9.9s1,8.8.9,13.3l2.9,2ZM76.7,93.5c-.4.9-.6,1.7-.9,2.5,1.8-1.5,3.3-3,4.8-4.6,2.9-8.8,3.6-9.8,4.4-19.1s-.3-6.8-.8-10.3l-2-13.4c-.4-2.9-1.6-5.6-2.3-8.4l-1.4-5.6-1-3.8c-1.9-7.3-3.6-11.1-3.1-19.4l-2.8,3c0,.9-.2,2.2,0,3.1l.6,5.6c.1,1.3.5,3.1,1.1,4.3l2.7,5.8c6.5,14,.5,13.2,3.1,22.7s1.9,8,2.6,12.1.5,9.7-.7,14-2.4,7.7-4.1,11.6ZM73.3,97.7c2-3,3.2-6.5,4.5-10.1,3-8.5,3.5-13.5,1.9-22.7s-1.7-7.2-2.6-10.8-.3-3.1,0-4.6l.4-4c.6-5.4-2.2-10.5-4.5-15.2s-2.5-8.5-2.9-14.8c-2.7,0-4.4,2.3-4.4,5s0,2.1.2,3.1l1.7,8.6c.3,1.5.4,3,.6,4.5l1,8.2c.1,1,.3,2.3.7,3.2l4.6,10.5c.8,1.7,1.3,3.5,1.9,5.3,3.5,9.7,2,19.5-1.4,28.9s-1.3,3.1-1.7,5ZM129.6,86.2c2.6-4,4.4-8,6.4-12.1l5.3-10.7c3.9-7.8,3.1-3.6,4.2-13.6s0-8.8-.3-13.2l-.2-3.9-2,5.8c-1.8,5.2-3.7,10.3-6.1,15.2l-4.8,9.8c-1.4,2.9-2.7,5.8-3.5,8.9l-1.9,6.8c-1.7,6.2-3.8,12.3-7,17.9l-1.8,3.2c4.6-4.1,8.2-8.7,11.6-14ZM114.7,70.6c1.7.7,1.3-10.8,1.3-11.1l-.7-7.6-.2-2.9-.8-11.9-.3-3.4c-.9,1.8-1.2,3.5-1.7,5.3s-.4,1-.3,1.6c.7,3.2-.6,4.8.2,10.5l2.2,14.4c.1.7.2,1.5.2,2.1l.2,3.1ZM74.5,123.4c3.6-2.5,6.3-5.7,9.1-8.9l2.9-3.4c5.7-6.8,7.3-10.8,11.3-18.4l1.6-3c2.6-4.9,4.5-10,6.7-15.1s.8-2,1.2-3.1c1.4-4,3.8-9.7,4-13.6s-.5-9.3-1.6-11c-2.2-3.5-5.3-6.3-9-8.2,0,7.6,4.2,12.6,3.3,20.5s-1.9,9.7-3.8,14.3l-6.4,15.4-2.4,6.3c-1.6,4.2-4.6,10.2-7.4,13.8s-4.9,6.2-7.7,9.1-5.9,5.2-9.2,7.7c2,.1,5.1-.7,5.9-2.3l.5.3c.1,0,.6-.2.8-.4ZM58.7,125.2l-7,4.5,11.8-2.8c3.4-2.1,6.5-4.5,9.6-7.2s4.4-4.3,6.4-6.7c5.2-6.2,7.3-10.1,10.6-17.5,2.6-7.5,5.5-14.7,8.7-22.1s3.8-11.1,4-15.3c.2-7.3-3-11.3-3.5-18.5-.4,3.7-1,7.1-1.2,10.6s-.2,5.5-.6,8.3-1.3,7.6-2.6,11.4-3.4,8.6-5.9,12.6-1.7,2.6-2.4,4l-1.2,2.2-7,14.1-4.2,7.5c-1.1,2-2.5,3.9-4.1,5.5s-9.2,8-11.5,9.4ZM131.7,86.5c2.1-2.6,4.2-4.9,6.6-7.1s4.9-5.5,6.6-9c2.8-5.8,1.2-4.8-.2-10.5l-5.2,10c-2.2,4.2-3.8,8.5-6.2,12.6l-4.6,7.7c1.2-1.1,2-2.3,3.1-3.6ZM93.1,103.6c-.8,1.2-1.3,2.3-2.3,3.7,2.8-1.9,4.9-4.2,7.2-6.6,6.8-7.3,10.7-15.3,14.1-24.6s.5-4.4,0-6.8-.3-4.3-.6-6.5l-1.5,4.6c-1.2,3.6-2.5,7-4,10.4l-2.9,6.9c-1.4,3.2-3,6.2-4.6,9.2l-3.5,6.7-1.9,3ZM104,106.2c.8-1.3,1.7-2.5,2.4-3.8,1.8-3.4,3.5-6.8,5.1-10.3s1-2.8,1.4-4.3c1.3-4.7,2.6-9.1,4.3-13.7s.6-2.2.8-3.4l-2.1.9c-.9,1.9-1.5,3.7-2,5.7-1,3.7-2.4,7.1-4,10.5l-2.2,4.4c-2.5,5-5.1,10-8.5,14.5s-5.6,6.2-7.9,10c5.3-1.8,9.8-5.8,12.7-10.4ZM120.1,94.4c1.6-3.3,4.3-10.1,4.9-13.7-1.2,2.2-1.9,4.6-3.1,6.9l-4.4,8.8c-.9,1.9-1.7,3.6-2.5,5.6,1.5-1.6,4.3-6,5.1-7.7ZM47.6,128.4c-.7.6-1.3,1.1-2.1,1.9,4.3-.2,11.9-5.2,15.1-7.9l6.2-5.1c3.4-2.8,5.9-6.3,8-10.2l5.4-10.3.9-1.8,1.7-3.8-3.8,3.6-1.5,1.4c-2.3,2.2-4.4,4.6-6.5,7.1l-11.2,13.4-2.5,2.7c-2.2,2.3-4.5,4.3-6.8,6.4s-1.7,1.7-2.6,2.4ZM83.2,120.7c5-2.8,3.9-.9,7.8-6s4.2-5.2,6.5-7.9,7.2-10.9,8.7-14.7l-3.7,5.2c-4.9,7-12.4,11.7-17.3,17.5s-5.3,5.8-8.5,8.7c2.3-.5,4.3-1.5,6.5-2.7Z"/>
</svg>