<?xml version="1.0" encoding="UTF-8"?>
<svg id="Layer_1" xmlns="http://www.w3.org/2000/svg" version="1.1" viewBox="0 0 124.3 141.1">
  <!-- Generator: Adobe Illustrator 30.1.0, SVG Export Plug-In . SVG Version: 2.1.1 Build 136)  -->
  <path d="M61.3,0l3,1.5c1.4.7,2.8,1,4.4.8,2.4-.3,9.7-.7,11.2,1l3.4,3.8c1.6,1.7,4,2.7,6.3,3.3,4.2,1.1,9.5.4,11.7,1.6s1.3,4.4,4.2,5.2l2.8.8c1.1.3,1.7,1.3,1.7,2.4l.2,3.7c.2,3.7,3.5,4.7,5.5,7.7s-.3,4.2,3.3,8.7,2.1,2.4,2.6,3.9c2,5.6,0,9.8,1.4,15s1.2,4.4,1,6.6l-.5,5.3c-.1,1.3-.7,2.6-1,3.9s-1,1.9-2.3,1.6-2-.5-2.9-.6c-3.8-.3-7.5.2-11.2,1.1l-6.6,1.6-11.7,3c-8.1,2-12.9,6.4-18.7,11.7s-4.5,4.8-6.5,7.7-3.3,8.5-4,11.1c-3.1,10.9-6.8,17.4-12.5,27s-1.1,1.3-1.7,1.8h-.9c-.4-.2-1.1-.7-1.1-1.2l2.9-4.6c1.3-2.1,2.3-4.1,3.8-6.1,2.2-3,3.8-6.1,5.2-9.6s1.8-4.5,2.4-6.9l.6-2.8c1.3-5.9,2.1-9.8.1-15.8s-4.6-9.3-8.7-12.8l-17.7-15.4c-3-2.6-6.2-4.7-9.5-6.8-6.2-4-7.9-4-15-4.7s-4,0-6.2,1.3c-.5-1.2,0-3.4-.5-3.3v-1.2l.6-2.3,1.1-4.4c.5-1.8,1.9-3.1,3.4-4.1,2.6-1.8,5-4.4,6.1-7.5l2.5-7c.4-1.2.3-2.8.5-4.2-2-3.7,1.5-7.9,4.4-9.8s4.5,0,6.3-.9,4.9-2.4,7.1-4.2c3.3-2.5,5.9-7.3,12.2-5.2S50,0,53.3.3s4.4.2,6.4-.3h1.7ZM72.6,48.2c1.3-6.1.9-11.2.4-17.3s-.9-5-1.6-7.5l-1.5-5.4c-1.5-5.3-1-7.2-4.5-11.9s-3.3-3.7-5.1-5.4l-5.4.6c1.6,2.6,2.8,5,3.9,7.6l3.2,7.9c1.9,4.7,3.8,9.3,4.7,14.4s1.3,9.1,1.3,13.8l-.3,15.1-1.2,16.9,6.2-28.9ZM64.2,84.9l1.5-9.6c1.1-7.3,1.4-21,1.5-28.7s-.6-14-2.1-19.2-3.8-10-5.8-15l-2.7-6.7c-.6-1.6-1.6-2.9-2.6-4.4-.7-.5-2.2-.2-3,0l-2.8,1.3c1.5,1.6,3.1,2.9,4.4,4.7,2.5,3.5,3.9,7.7,4.5,12s.6,6.6.9,10l.7,7c.6,6,1.6,11.7,3.2,17.6s2.8,16.3,2.7,24.4,0,2.7-.2,4-.3,1.6,0,2.4ZM69.8,69c2.6-7.7,5-15.4,6.8-23.4,1.9-8.4,1-26-.4-34.7s-1.1-5.1-1.8-7.9c-2.2-.5-6.8.6-8.3,0l-3.7-1.4c.7.8,1.3,1.4,2,2.1,1.8,1.8,3.1,4.1,4.3,6.4,1.1,4.8,2.3,9.3,3.7,14s1.2,5.1,1.4,7.8l.3,4.3c.3,3.8.1,7.5-.7,11.3l-5.3,25c.7-1.2,1-2.3,1.6-3.6ZM62.5,60.2c-.4-2.5-1-4.8-1.7-7.3-2.1-8.6-2.9-14.1-3.6-23l-.6-7.8c-.4-4.8-1.6-9.5-4.2-13.6s-3.5-3.9-5.4-5.8c-3.6-.1-6.2-2.3-9.4.2,2.9,2.7,4.7,5.8,6.4,9.2,11.2,21.5,6.8,26.8,13.6,46.8,1,3,1.6,6,2.4,9.1,1.9,7.6,2.3,15.2,2.2,23.1,2.2-9.3,1.6-21.6.1-31ZM74,61.1l2.8-8.8,3.3-10.4c1.2-3.9,2.6-7.6,3.5-11.6s1.9-7.4,3-11.1.8-5.8.8-8.7c-2.7-1.1-4.8-2.6-6.5-4.9s-1.4-1.6-2.3-2.3l-3.4-.3,1.7,7.6c1.6,7.2,1.9,25.8.7,33.6s-1.4,6.4-2.3,9.7c-1.9,7-4.1,13.8-6.8,20.6s-1.9,5-2.1,7.8l3.5-9.4,4.1-11.6ZM61.5,84c0-11-3.2-20.5-6.3-30.6-3-10-2.9-19-6.4-28.6s-1.9-4.8-2.9-7.2-1.7-3.4-2.6-5.1c-1.7-3.4-3.6-6.7-6.5-9.1l-4.8,4.6c1.4,3.4,2.8,6.6,4.4,9.8,2.3,4.5,4.3,8.8,6.3,13.4l4.3,9.6c2.5,5.7,4.3,11.3,6.4,17.1l4.2,11.3c1.8,4.9,2.8,9.8,3.8,14.7ZM61.1,92.7c1-8.3-3.6-22.3-6.7-30.1s-2.3-6.3-3.3-9.7-2.6-7.3-4.3-11l-9.7-21.3c-1.9-4.2-4-8-5.7-12.5l-3.5,2.1c2.3,4,4.2,7.7,5.4,12,1.8,6.8,4.4,13,7.2,19.5l7,16.3c1.5,3.5,2.7,6.9,4.4,10.3,3.5,7.1,7.4,11.1,8.5,19.5l.7,4.9ZM60,91.9c-.3-5.2-1.5-10.1-3.9-14.3l-4.8-8.6c-2.1-3.8-3.3-7.8-5-11.8l-4.1-9.8-3.5-8c-2.2-5.2-4.2-10.2-5.7-15.6s-3.2-9.2-5.8-13.2c-1.4.8-2.7,1.4-4.3,1.6,5.1,7.1,7.6,14.5,10.8,22.4s3.3,7.6,5,11.5l6.4,14.6,4.3,8.3c1.9,3.6,5,8.4,6.5,12.4l4.1,10.5ZM63.5,94.1c3.2-4.5,5.7-9.2,8.3-14s3.1-6.5,4.1-10.1c1.9-6.9,3.4-13.8,5.8-20.6l9.5-27.6c1.1-3.2,1.9-6.4,2.6-9.8-1.8-.2-3.6-.6-5.4-1,0,3.1-.1,6.4-1.1,9.5s-1.8,6-2.6,9.2-1.2,5-2,7.6l-6,18.7-6.3,18.3-4.1,11.1c-1.1,2.9-1.8,5.8-2.6,9ZM55.9,84c0-1.7-.9-2.6-1.2-3.9l-8.4-15.6c-1.9-3.6-3.3-7.1-4.9-10.9l-5.7-12.8-2.3-5.4-3.6-9.1c-1.6-4-3.3-7.8-5.7-11.4l-2.1-3.1c-1.7-.4-3.5.6-4.5,1.9,2.6,4.5,4.7,8.9,6.8,13.6l5.2,11.4,6.6,15.6c1.2,2.8,3,5.2,4.5,7.8,2.3,4,5.1,7.4,7.8,11.1l.9,1.2,6.6,9.5ZM81.8,59.9l3.3-8c3.1-7.4,5.8-14.8,9-22.1s4.2-10.3,5.9-15.7,0-1.2.1-1.8l-5.7-.3c-.9,4-1.8,7.4-3,11.2l-8.5,24.8c-2.3,6.6-3.8,13.3-5.6,20l-1.5,5.5c2.6-4.3,4.2-9,6.1-13.6ZM92.4,48.1c3.3-5.8,7.2-10.8,11.9-15.3s3.9-4.2,5.7-6.5c-.4-2-.6-3.6-.6-5.6s-.5-1.7-1.3-1.9l-3-.9c-2.6-.8-2.1-3.1-3.9-5.1l-2.2,6.7c-1.9,5.8-4.7,11.2-7,16.9l-5.7,14.5-2.8,7c-1.7,4.1-3.1,8.2-5,12.2l-5.5,10.9,12.2-19.7,7.3-13.2ZM34,51.8l-5-12.1-3.3-7c-3-6.3-5.1-12.3-9-18.5-2.8,3.1-3.1,4.1-1.5,7.7,1.7,3,3.5,5.7,5.6,8.5,5.7,7.7,7.2,14.2,13.2,21.3ZM55.7,86.6c-.6-1.5-1.2-2.9-2.1-4.1l-8.2-11-1.2-1.7c-3.2-4.5-5.5-9.3-8.5-13.8l-5.6-8.3-.9-1.5c-1.8-2.9-3.2-5.8-4.8-8.8-3.1-5.7-6.4-9-9.6-14.8-.4,2.7-1.1,5.2-2,7.7s-2.2,5.6-4.5,8.1c5.6,6.3,12.9,10,19.2,15.4l4.7,4c2.7,2.3,5.1,4.9,7.1,7.8l4.8,7.2c1.6,2.5,3.5,4.7,5.6,6.8s2.5,1.8,3.3,2.9,1.8,2.7,2.9,4ZM93.8,55.5l9.2-9.4c.6-.6,1.2-1.1,1.7-1.7l4.6-5.2,5.6-7.1c-.7-1.8-3.1-2.8-4.5-4.9-2.3,2.8-4.8,5.5-7.4,8.1-4.3,4.3-7.7,9-10.6,14.3s-7.7,14-12.1,20.8-1.9,3-2.7,4.7c1.8-1.8,3-3.8,4.4-5.8,3.5-5,7.4-9.3,11.7-13.8ZM90.3,66.3c3.3-2.7,6.3-5.3,9.3-8.1l7.3-6.8,6.6-6.6c1.4-1.4,3.5-2.2,5-3.5-3-4.4-2.1-3.5-3.3-8.6l-7,8.8-.9,1-15.5,16.1c-3.2,3.3-6,6.6-8.6,10.3l-3.6,5.1c-1.2,1.8-2.6,3.2-3.6,5.1.9-.7,1.6-1.4,2.4-2.3,3.7-3.8,7.6-7.1,11.9-10.5ZM28.4,62.7c4.8,3.7,9,7.7,13.6,11.6l5.5,4.8c-2.1-3.3-4.9-5.9-7.9-8.4s-4.7-4-7-6.2-5.1-4.5-7.9-6.5-.7-.7-.3-1.2c6.9,4.7,11.3,10.1,17.7,14.9-1.6-2.8-3.3-5.2-5.1-7.7-3.7-4.8-13.6-12.5-18.8-16.2s-7.1-5.3-10.3-8.7l-3.8,2.8c-1.5,1.2-1.9,3.3-2.1,5.2,7,1.2,17.2,4.4,22.3,9.9-3.1-1.2-5.2-3.6-8.1-4.8s-7.4-2.9-11.3-3.8l-3.2-.7c-.9,2-1,4.4-.6,6.6,1.9-.7,3.7-1,5.7-.8l3.3.3c3.7.3,7.2,1.4,10.3,3.4s5.4,3.4,8,5.4ZM97.3,71.3c2.3-1.2,4.4-2.5,6.8-3.5s6.3-3.1,9.6-4.2,5.9-2,8.7-3.5c-1.3-4.2-.3-5.4-.6-9.5-2.5,1.5-4.8,3-7.3,4.6l-4.5,2.9c-3.1,2-6.5,4.1-9.5,6.2s-.6.2-.7.3-.2-.4-.1-.4.2-.2.3-.3l3.6-2.4,6.6-4.2,5.5-3.6,6.2-3.9c-.3-3.4-.3-5.1-2.7-7.9-1.4,1.2-3.3,1.8-4.6,3.1-4.9,5-9.9,9.8-15.1,14.5s-5.3,4.7-8.1,7-7,5.7-10.2,8.8c1-.5,1.9-1.1,2.9-1.8,5-3.3,9.2-5.3,14.3-8.6s1-.5,1.5-.1c-7.4,5-15.4,8.6-22.1,14.2s-8.1,9-9.2,11.1c7.5-8,9-9.2,18.8-13.6s6.7-3.2,10.1-5.1ZM89.7,76.7c3.8-1.7,7.4-2.8,11.4-3.5l19.7-3.6c.6-.1,1.3-.4,2-.6.5-2.7.7-5.4-.2-8.1-3.3,1.6-6.5,2.6-9.9,3.9-6,2.3-11.5,5.3-17.2,8.4s-4.3,2.2-6.6,3.3c-3.5,1.6-6.9,2.9-10.2,5.1l10.9-4.8ZM83.1,81.2c5.4-2.5,14.8-4.1,20.8-5.1s9.5-1.7,14.3-2.8,2.7-.6,4.2-.8l.3-2.5c-1.7.3-2.8.5-4.2.8l-10.6,1.8c-11.1,1.9-19.9,5-29.7,10.3-3.3,1.8-6,4-8.3,6.8s-2.1,2.4-3,3.8l5-4.4c3-2.7,7.6-6.1,11.3-7.9ZM120.2,76c.3.1,1.3,0,1.3-.3l.5-2.3-3.6.6-5.4,1.3c2.5,0,4.7-.1,7.2.7ZM91.5,80c3.6-1,7-1.5,10.4-2.7-4.2.5-8.2,1.5-12.2,2.4-3.5,1-6.8,2.1-9.7,4.3,3.8-1.7,7.4-3,11.5-4ZM57.2,91c1.7,4,2.5,7.7,2.2,11.8,1.5-3-.6-9.8-2.2-11.8Z"/>
</svg>