<?xml version="1.0" encoding="UTF-8"?>
<svg id="Layer_1" xmlns="http://www.w3.org/2000/svg" version="1.1" viewBox="0 0 141.1 183.6">
  <!-- Generator: Adobe Illustrator 30.1.0, SVG Export Plug-In . SVG Version: 2.1.1 Build 136)  -->
  <path d="M99.9,0c.2.2.6.4.9.5,2.5.7,4.4,2.1,6.3,3.8s5.2,2.2,7.8,1.8l8.9-1.2c1-.1,2.3.5,3.3.7s1.3.5,1.9,1c2.6,1.9,5,3.9,6.8,6.6,6.1,4.7,3.5,4.6,4.2,6.4s.3.7,1,3.1v3.1l-.9,3.1c-.7,2.4-1.7,4.6-2.2,7s-2.4,12.7-2.5,15.7v4.5c-.1,0-.2,2.6-.2,2.6,0,6.6-2.9,12.3-6.9,17.3s-3.8,3-5.9,4.2l-9.7,5.7-11,5.8c-.8.4-1.5.9-2.4,1.3-3,1.4-5.4,3.8-8.2,5.6s-1.1.7-1.6,1.2c-2.4,2.3-5.2,4.3-8.5,5.1s-6.6,1.2-10,1.3l-6.5.2c-2.8.1-5.5.2-8.4,0s-4.6-.3-7,0c-5.5.8-14.3,3-19.1,5.8s-1.3.4-1.8.6l-5.8,2.5c-.9,1-1.7,2.5-2.5,3.7s-1.2,1.8-1.8,2.8c-3.4,5.9-6.8,11.9-9.1,18.4s-1.5,5-2.2,7.6c-1.4,4.8-1.5,9.8-2,14.7-.9,8.7,2.7,11.2,2.3,17.8s-1.4,2.6-3.4,2.9c-1-1.2-1.8-2.6-2.1-4.2-.5-2.7-1-5.3-1.2-8l-.2-2.7c-.1-1.6,0-3.3,0-4.9,0-3.2.1-3.9.7-7.1l.7-3.9,1.4-7c.9-4.8,2.7-9.1,5.2-13.3s5.6-8.3,8.3-12.5l1.3-2c1.3-2,2.7-3.7,3.8-5.8s1-1.7,1.3-2.5c1.4-3.8,2.8-9.8,3-13.9s-.6-3.6-.9-5.3-.9-3.8-1.9-5.6c-1.7-3-3.5-5.7-5.3-8.5s-2.4-4.3-3.5-6.6l-2.6-5.4c-1.2-2.6-3.2-4.7-5.2-6.7-2.8-3,.2-8.1,1.6-11.1l2.7-5.9c1.1-2.4,2.5-4.7,4.7-6.3s1.7,0,2.2.7.3,1.3.3,2.1v2.9c0,3.1.9,5.8,1.9,8.6s2.8,6.6,5,9.6,2.4,5.7,4.5,7.2,1.2.2,1.4,0,.6-.7.7-1.2c.8-2.4.4-5.1-.4-7.5l-1-3.1c-3.1-9.6-6-7-8.6-13.5s-1.2-3-2.3-4.1-2-1.4-1.6-2.7c.6-1.9,1.8-3.8,3.3-5.3s5.6-3.9,8-3.7c4.1.5,10.1,1.5,13.5-.8s3.4-3,5.5-4.1c4.2-2.3,8.6-3.1,12.1-5.6s3.4-2.5,5-3.9c3-2.7,7-6.2,10.6-7.9s2-.7,3-.9c3.6-.8,9.3,2.6,11.4,5.9s.6,8.2,3.3,9.5,2.5-1,2.9-2c1.6-3.8,2-7.6,1.5-11.7s.5-1.9.7-2.6h1.4ZM98.7,32.8c2-.5,3.9-1.4,5.7-2.3l.4-3.2.3-3.3c.3-3.3-.4-6.5-.8-9.8s-3-10.3-4.6-12.8c-.8.7-.6,1.8-.4,2.7.5,3.7-.8,7-1.3,10.6s-.5,4.4-1.1,6.6c-1,4.2-1.7,8.4-3.6,12.3l-1.2,2.4c3-.4,2.2-2,6.8-3.1ZM78.8,36.3l1.6-7.6c1-5,1.9-14.5,2.4-19.8s.3-3.9.3-5.9c-2.4-1.3-4.5-.9-7,0l.4,6.5c.3,5.4.5,10.6-.3,16.1l-1.6,10.6c1.7-.1,2.8-.1,4.3,0ZM106.4,15.9c-.2-3.1-.8-5.9-2-8.6s-.8-2.5-.5-4c-.7-.4-1.5-.8-2.3-1l2.3,5.5c1.2,2.9,1.7,9,2.7,11.5l-.2-3.3ZM73,36.6c.5-1.7,1-4.7,1.3-6.7l1.1-7.9c.3-2.3.1-11.7,0-14.2l-.4-4.3c-1.1.7-1.9,1.1-2.7,1.7l-4.4,3.5c-1.3,1-1.6,2.3-1.5,3.8.2,3.8-.3,7.5-.7,11.3s.3,5,.2,7.4l-.2,5.3c.8-.7,1.6-.9,2.6-.6,4.8,1.3,1.9-.2,4.8.6ZM85.8,12.3c.6-2.8-.2-5.1.2-7.4-.3-.3-1-.8-1.6-1.1-.6,6.9-1,13.6-2,20.4l-.7,4.6c.4-.8.8-1.6,1-2.6l3.1-13.9ZM111.7,46.9l-.2,10.2c1.2-4.2,3.7-16.6,3.6-20.7s-.6-7.9-1.2-11.9-4.1-12-5.1-17.4l-3.6-2.7c-.2,1.2.4,2.3.8,3.5,1.2,3.2,1.8,6.5,1.8,9.9s-1.5,8.2-1.8,12.2c1.6-.2,3.1-.5,4.6-.2,3.1.6,2,6.1,1.6,8.2-.6,3-.4,6-.5,9ZM89.5,35.2c1.2-2.4,1.7-5,2.3-7.6s.7-3.4.6-5.3.2-3.8-.7-5.3c-2.3-3.6-1.6-3.7-2.6-8.5s-.8-2.1-1.9-2.7c.4,3.8,0,7.2-.9,10.7l-2.1,8.8c-.9,3.8-2.4,7.4-3.9,11.1,3.3,1.6,4.4-1.7,6.9-2.4s1.5.7,2.3,1.1ZM111.5,69.3c1.5-.9,2.4-2.2,3.4-3.5,4.6-5.2,7.1-11.4,7.9-18.3s1-5.1,1.4-7.7c1-5.8-.5-8.5,1.6-11.9,0-1.3-.1-2.6-.3-3.9l-1.9-13.2-.7-4.7-8.7,1.4c3.5,6.2,4.8,12.7,6.1,19.3s.6,7.5.6,11.4v2.2c0,5.7-2,13.1-4.1,18.5l-1.4,3.6-3.8,6.6ZM126.7,6.9c-.6-.5-1.9-.7-2.6-.6l1.4,9.6,1.2,7.7c1.5-6.4.5-10.5,0-16.6ZM110.8,66.3c-.1.6-.5.8-.2,1.7,1.5-2.2,3.1-4.5,4.1-7.2,2.3-5.9,4.2-11.8,4.7-18,.8-9.2-.5-18-3.1-26.8s-2.1-5.7-3.7-8.4c-.8-.2-1.6-.3-2.5-.4.5,1.8.8,3.3,1.3,4.9l2.1,6c.6,1.7,1,3.3,1.5,5.1s.4,2.7.6,4c1.8,10.9,0,17.6-2.4,28.2l-2.5,10.8ZM138.9,19.5c0-.6,0-1.9-.4-2.4l-3.3-3c-2.3-2.1-3.8-4.7-6.7-6.4-.3.9-.3,1.8-.2,2.7l.4,3.9c.4,4.2-.3,8.1-1.1,12.4,7.5-1.6,6-4.1,11.3-7.2ZM62.8,43.8c.9-4.6,2.1-9.6,1.6-14.1s-.4-2.7-.3-4.1l.7-8.1.2-6-2.8,2.3c.2,5.9,0,9.8.4,15.6s0,4,0,6v8.5ZM52.2,70.2l-2.1,9.5c2.7-3.9,4.8-8,7-12.2s2.9-7.2,3.8-11.1,0-1.9,0-2.7c.2-2.8.6-5.5.6-8.3v-9.1c0-2.6,0-5.2-.1-7.9-.3-4.7-.3-9-.1-13.8-2,.9-3,1.7-4.9,2.5l-5.7,2.3,1.1,5.3,1.8,7.8.6,4.4c.5,3.2,1.4,4.3,1.1,10.1s-.8,9-1.5,13.6l-1.5,9.8ZM92,33c1.5-2.8,2.2-5.8,2.8-8.8l1.5-7.3c-1.1.6-1.7.9-2.8,1,1.1,6.5-.3,9.1-1.5,15.1ZM39.9,94.6c1.3-1.6,2.2-3.1,3.3-4.7,3.2-4.5,3.3-4.3,5.1-9.5s2.6-10.2,3-13.3l.9-6,1.3-9.1c.8-6,.5-11.7-.8-17.6l-1.4-6.4-1.8-8.1c-1.3.5-2.5,1.3-3.6,2.2l-3,2.5,2,5.1c1,2.7,2.7,3.1,2.4,8.6s1.4,5.7,1.3,8.9l-.4,11.2c0,2.9-.5,5.5-.8,8.4-.8,8.2-3,16-6,23.7l-1.6,4ZM116,79.1c3.8-5.7,7.4-11.5,10.2-17.7.9-2,1.9-3.8,2.5-5.9,1.3-4.7,2.4-9.3,4.3-13.8l.9-2.1c1.5-3.5,2.9-6.9,3.9-10.6s.5-4.9.2-7.3c-1.5,1.2-2.7,2.3-3.4,3.7-1.5,2.7-2.9,5.3-3.8,8.2l-4,12.5-1.6,5.1-2.9,8.8-2.3,7.1c-.9,2.7-1.8,5.2-3,7.9s-4.4,6.5-7.1,9.5c1.5-.5,5.4-4.3,6.2-5.5ZM43.6,36.3l-.3-6.3c0-1.7-1.1-3.1-1.7-4.8l-3.6.9,2.9,5.2c1.3,2.3,2,4.9,2.7,7.4.5-.8,0-1.4,0-2.3ZM44.4,63.4l.3-9.5c0-.5-.1-1.2-.1-1.7-.1-4.4-.9-8.5-2-12.8s-3.2-9.5-6.4-13.4c-1.7,0-3.4,0-5-.3s-2.4-.4-4-.2c1.4,1.9,2.5,3.7,4,5.5,5,5.9,9.1,13.3,10.3,21s.8,8.4.5,12.7-1.1,9.7-2.3,14.5-.8,3.3-.9,5.1l1.9-4.3c1.9-4.5,3.6-11.7,3.8-16.5ZM39.9,70.2l.4-3.2c.1-1.2.4-2.6.4-3.8v-3.8c-.1-3.9-.4-7.7-1.5-11.5s-3.1-8.5-5.8-12.1l-4.4-5.7c-1.1-1.4-3.2-5.6-4.9-3.4,1.8,3.4,3.4,6.8,4.2,10.6s2.6,8.3,4.4,12.3c3.9,8.5,5.3,15.1,5.4,24.6v5.7c.8-3.4,1.3-6.5,1.9-9.8ZM124.7,44.1l-1.3,8.1,4.9-15.8c1.1-3.5,2.5-6.5,4.1-9.9l-3.6,1.2c-2.1.7-3,2.3-2.9,4.5v3.1c.2,3-.7,5.9-1.2,8.9ZM32.7,73.6l.6,3.5c.9,5.1,1.1,10.1.8,15.4,2.9-7.8,3.1-16,2.4-24.3s-1.6-10-3.5-14.7-1.9-4.8-3.1-7.2-1.7-4.2-2.3-6.4c-.9-3.8-2.4-8.8-4.6-12.4-1.2.9-5,5.3-3.5,6.6,4.1,3.6,1.9,5.8,7.3,10.4s4,5.7,4.8,9.1c-.1.3-.2.4-.2.5s.2.4.3.6l.8,1.9c1.1,2.6,1.5,8.5-1.6,9.9.8,2.4,1.5,4.6,1.9,7ZM66.8,99.2c4-1.9,7.4-4.5,10.5-7.5s2.6-2.5,3.7-3.9c2.6-3.2,5.2-6.2,8-9.3s3.9-4.6,5.7-7,2.2-3.3,3.4-5l3-4.2c1.5-2.2,2.7-4.6,3.7-7s1.3-3.9,1.9-5.9l1-3.3c.4-1.5-.5-5.2.4-10.3s.2-4.2-.1-4.8c-1,0-1.8.4-2.6.9-.3,0-1.1.2-1.4.3l-5,2-.3,6.3c-.1,2.9-.6,5.6-1.1,8.5-.8,4.4-1.4,8.7-2.9,12.9-2.2,6.2-6.3,13.5-10,18.9l-1.6,2.3c-4.4,6.4-7,9-13.6,13.2l-6.9,4.4c1.6-.3,2.8-1,4.3-1.7ZM67.4,103l6.4-3.3c5.7-3,10.8-6.8,15.3-11.3l2-2,1.6-1.7c6.1-6.6,13.7-19,16.8-27.5l.9-8.8c.2-1.6,0-3.2,0-4.8,0-6,1.1-6.9.8-11.1s-1.1-1.7-1.9-1.6c.2,5.1-1,8.5-.2,13.7-.7,3.5-1.7,6.8-2.8,10.2s-2.1,4.9-3.6,7.2l-4,5.9c-1.6,2.4-3,4.6-4.9,6.8l-9.9,11.4c-1.6,1.9-3.1,3.6-4.9,5.5-5.6,5.8-12.7,9.7-20.5,11.9s-2.2.8-3.4,1.4c1.6.2,3.2.4,4.9.3s5.8-1.4,7.2-2.1ZM45.8,37.1c0-1.5.2-3.3-1.2-4.4,0,4.9.8,9.5,2.5,14.1.4-3-1.2-6.2-1.3-9.7ZM73.2,92c4.4-2.6,8.3-8.9,11.1-13.1s6.4-10.4,8.7-16.3,2.5-9.3,3.4-14.1,1-8.4,1.2-12.7,0-1-.3-1.1-.7.1-1,.3c-6,4.7-4.3.4-7.4,2.9,1,1.5.8,3.4,1.1,5.2,1,7.2.9,11.2.4,18.5s0,3-.5,4.4c-2.6,8-11.1,19.8-16.7,26ZM33,86.5c-.2-4.3-1.4-17.3-4-20s-1.6-1.3-2.1-2.3c-1.1-2.1-1.9-4.4-3.2-6.2-2.1-2.8-3.6-5.6-4.8-8.9s-1.9-5.2-2-8v-5.5c-.1-.4-1.2,0-1.5.2-1.4,1.6-2.6,3.4-3.5,5.5.1,1.7.8,3.1,1.4,4.7l4.7,11.6,6.6,14.5c4.3,9.5,7.4,17.5,6.2,28.2,1.6-3,2.4-10.2,2.2-13.7ZM38.1,107.3l13.5-4.3c3.4-1.1,6.6-2.2,9.7-3.8s5-3.2,7.5-4.9.8-.6,1.3-1.1c2.7-2.8,5.4-5.5,7.6-8.6l3.9-5.4c2.2-3.1,3.8-6.3,5.5-9.7s1.7-4,1.9-6.2c.5-4.9.7-14.5-.2-19.2s.7-2.6-2.3-8.3c-1.5,1.2-2.8,2-4.5,2.4l1,5.4c.4,2.2.6,4.3.5,6.6-.2,6.2-.5,10.3-2.4,16.4s-4.1,9-7,13.1-6.4,7.1-9.5,9.3l-5.7,4.1-4.2,2.8-3.1,2.2c-4.5,3.2-8.9,6.4-13.6,9.2ZM57.7,88.8c4.2-5.2,7.6-11,9.8-17.4s4.9-20,4.2-27.9l-.5-5.4-4.2-.9c.6,8.7-1.8,19-4.1,27.5l-2.6,9.7c-2.6,9.6-8.3,17.6-14.5,25.1,2.6-1.6,10.3-8.7,11.8-10.6ZM59.8,91c6.6-4.5,11.3-8.5,15.6-15.4s7-16.3,6.9-25.3.1-2.7,0-4.1-.3-2.7-.6-4l-.9-4.2c-4-.7-4.1-.7-8.2,0,.8,8,.3,16.7-1.2,24.5s-7.2,22.2-15,29.8-2.8,2.3-3.9,3.9l7.4-5.1ZM118.8,77.5c1-1,1.9-1.9,2.6-2.9l6.5-8.6c2.8-3.7,5.5-7.7,6-12.4l.7-6.7c.4-3.2,1.1-6.1,1.5-9.4-2.3,5.1-4.2,10.2-5.4,15.7s-2,5.7-3.3,8.5-2.9,5.9-4.6,8.8l-2.1,3.6c-.7,1.2-1.6,2.2-1.9,3.4ZM25.6,111.7c3.1-.6,5.6-2.1,8.2-3.6,4.3-2.6,7.7-5.7,10.9-9.5,5.9-6.8,11.6-14.8,14.1-23.5l1.1-3.7c1.8-6.3,3.5-12.5,4.7-19s1.6-9.8,1.3-13.8c-1.4,2.7-1.6,5.6-2.1,8.7l-1.5,8.5c-.8,4.7-2.3,9-4.6,13.3s-4.4,8.4-7.2,12.4l-8.9,13.1-4.9,7.4c-1.1,1.7-2.6,3.2-4.3,4.3l-4.7,3.2c-.3,1.7-.8.7-2.2,2.3ZM26.6,100.7c0,3-.7,5.7-2,8.4,1.2,1.7,3.7-3.9,4-4.6,1-2.9,1-5.9,1.1-9-.1-3.3-.5-6.5-1.3-9.7-1.4-5-3.4-9.5-5.5-14.2l-7.3-16.6-.8-2.1-3.8-9.5-1.5,2.9c-1.3,2.5-3.5,6.8-2.6,9.5,1.6,1.9,3.3,3.6,4.7,5.6s2.2,4.2,3.2,6.4,2.9,6,4.7,8.8c4.8,7.5,6.8,9.6,7.6,19.2s-.3,3.3-.4,5ZM39.2,92.6c1-2.6,2.1-5.1,2.9-7.8,1.9-6.1,3.4-11.3,4.1-17.7s.6-5.1.7-7.9.7-6.8.2-10.1-1.2-1.9-1.5-2.7l.3,4.4v11.7c0,6.2-1.5,12.2-4,17.9l-4.5,10.5-3.8,9-2.9,5.8c3.2-1.6,7.3-9.9,8.6-13.1ZM115.5,82.5l6.9-3.9c2.6-1.5,4.9-3,6.5-5.7l2.5-4.2c1.8-3,2.5-6.6,2.5-10.3-1.8,3.5-3.7,6.6-6.1,9.6l-2.7,3.5c-.7,1.1-1.5,2-2.3,3-1.5,1.8-2.9,3.7-4.7,5.4s-1.8,1.7-2.7,2.6ZM104.3,87.4c1.5-1,2.8-2,4.1-3.3,5.9-6,8-10.1,10.5-18.3l1.8-6.1c-2.9,5-6.3,9.4-10.9,12.9-1.3,3.4-2.6,6.6-4.3,9.8l-3.6,6.6,2.3-1.5ZM76.6,104.3c3.8-.3,7-1.6,10-3.8s7-5.6,10.8-8.1,1.4-.8,1.9-1.7c2.4-4.2,4.7-8.2,6.8-12.5s1.6-3.8,2.3-5.6-.3-1-.3-1.4l1-8.9c-.7.7-1.1,1.6-1.6,2.6-4.4,8.6-9.4,16.2-16.2,23.1s-1.5,1.5-2.3,2.3l-4.9,4.2c-4,3.5-8.6,5.8-13.3,8.2l-4,2.1c3.2.2,6.2-.2,9.7-.5Z"/>
</svg>