<?xml version="1.0" encoding="UTF-8"?>
<svg id="Layer_1" xmlns="http://www.w3.org/2000/svg" version="1.1" viewBox="0 0 181.2 197">
  <!-- Generator: Adobe Illustrator 30.1.0, SVG Export Plug-In . SVG Version: 2.1.1 Build 136)  -->
  <path d="M86.8,0c1.8.7,3.3,1.5,4.5,3.2,3,4.2,6.2,5,10.2,7.5s2.5,1,4.3,1.2,4.2,2.2,4.4,4c.4,5.4-4.7,10.9-6.2,16.8s-.7,3.8-.8,5.8l-.2,4.6c0,1.5-.8,3.2,0,4.7l1.6.9c.9-1,1.7-2.1,2.3-3.4,3-7.1,2.9-7.2,4.8-14.7s1.6-3.8,6-4.8,4.7-.3,6.9.6l5.2,2.1c1.9.8,3.6,2.1,5,3.6l6.4,7.3c1.2,1.3,2.2,1.8,2.6,3.7.7,2.9,1.4,5.8,1.5,8.8s.3,3.9.2,5.9,0,5.5-.7,8.2-1.5,4.8-3.3,6.6c.5-.6-12.6,11.1-12.4,11l-3.2,2.6-7.4,6.9c-3.2,3-9.3,9.2-11.7,12.7l-10.9,15.4c-1.7,2.3-2.8,5-3.4,7.7-.6,2.7,0,2,.3,3,1.7,5.5,4.2,10.4,7.5,15.2s8.4,11.3,13.1,14.9c3.1,2.3,6.2,4.2,9.1,6.8s3.6,2.9,5.5,4.3,1.3,1.4,2.4,1.8c-1.5-3.6-2.3-6.9-2.5-10.7-.4-6.9-.7-13.7-2.2-20.5-.4-1.7-1.4-3.5-2.1-5.1s-2.2-3.8-3.5-5.7c-2.6-3.8-4.8-7.6-6.7-11.8s-.8-4.5.4-6.5.8-1.3,1.1-1.6c3.5-3.5,6.6-6.9,9.7-10.6s7.3-6.6,11.9-8.5,2.6-.7,3.8-.4,1.7,2.2,1.1,3.3l-2.9,5.8c-.5,1-1.1,2.2-1.4,3.3-.5,2.2-.7,4.4-.2,6.7,1.5-1.6,2.1-3.4,2.9-5.2l4.8-9.8c.7-1.4,1.9-2.7,3.5-3s4.2.6,6.1,1.6l3,1.6c1.3.7,3,2.8,3.6,4.3,1.9,4.4,1.2,4.3,5.1,7.1s5.4,3.8,3.8,7.7-5.7,4.9-8.1,7.7c3.9-1.4,5.6-3.7,10.1-3.9s6.6.4,7.6,3.8.6,2,.9,3.1l.9,3.9v1.2l-1,3.3c-.6,2.1-1.8,3.9-2.1,6l-.8,4.7c-.2.9-.9,2.6-1.7,3.1-2,1.4-9.1-2.9-10.9-4.2s-3-2.1-5-2.4c2.4,2.6,5.3,4.4,8.3,5.9s2.6.8,3.4,1.4c2.5,2.1,1.7,5.5-.5,7.3-4.7,4-5.8,9.4-11.3,9.7s-2.3-.8-3.2-1.5c-4.7-4.1-5.6-3.3-9.7-6.6s-8.2-5.1-11.6-8.1-1.6-1.3-3-.5-1.3.7-1.4,1.6c-.6,5.7,0,11.3,1.7,16.8s7.1,11.8,12.7,15.4,1.5.8,2.2,1.2l4,2.3,7,3.8c1.2.7,3.9,2.7,2.7,4.2s-4.2-1-5.4-1.8-2.1-1.5-3.3-2l-4.3-2c-3.7-1.7-7.2-3.6-10.6-5.8s-2.7-1.5-3.9-2.4l-6.5-4.8-5.3-4c-5.6-4.3-12.7-11.1-16.6-16.8-.7-1-1.2-2-2.1-2.9s-2-1.5-2.8-2.4l-2.4-2.6c.9.7,1.5,1.6,2.5,2.1l-8.5-9.5c-3.4-3.8-7.1-6.9-11.1-10s-1.5-.5-1.9-1c-4.1-4.1-12.2-7.5-17.9-9s-9.2-2.7-13.6-4.8-6.9-4.2-9.8-5.3l-7.5-3c-5.4-2.1-10.8-3.9-15.4-7.5s-6.4-4.9-9.3-7.7-3.5-5.5-4.8-8.4,0-1.3.3-2.1c.5-1.4-.2-3.1-.2-4.6,0-2.3.1-4.4.3-6.7.5-6.3,1.2-10.3,4.1-15.9,2.9-5.6,1.8-2.1,2.9-2.4s2.5.2,3.6.9l4.8,2.8,3.2,1.9c.5.3,1.1.6,1.6,1l7.2,5.4c1.1.8,2.1,1.5,3.5,1.6.1-1.7-7.5-6.9-9.2-8.1s-4-4.1-5.2-5.6l-2.8-3.7c-.8-1.1-1.3-2.9-1.3-4.4s.9-3.8,1.8-5.5c1.6-3,3.6-5.6,6.3-7.6,4.4-3.2,4.7-8.2,7.9-11.7s6.9-3.7,9.4-6.3,1.6-1.2,3-1c3.1.5,6,1.6,8.3,3.7,2.3,2.1,3.3,4.4,4.3,7.4l1.4,4.3c1.5,4.5,3.7,8.7,7.5,11.8l-1.9-7.8c-1.2-4.9-3.9-9.9-3.7-14.4s.7-2.4,1.4-3.4c1.2-1.6,2.1-3.6,3.7-4.9,2.6-2,5.5-3.3,8.4-4.5l8.2-3.3c1.7-.7,3.5-1.1,5.3-1.5h2.3ZM74.9,86.6c1.3,3.4,1.9,6,2.8,8.8v-3.6c0-3,.2-5.9.6-8.9l1.6-10.9c.5-3.8.9-7.5,1-11.3l.2-10.4.6-19.1c.2-7.1.8-13.9,2.1-20.9l1.1-6.1c.2-1,.3-1.7.4-2.8-1.9.2-3.3.4-5,1.1l-9.3,3.8c-1.6.6-1,2.8-.6,3.8,2.5,6.5,2.2,15,1.8,21.9s-.2,6.8,0,10.3l.5,9.6c0,1.7,0,3.2,0,4.9l-.5,6.6c-.2,2.6-.4,5-.5,7.6,0,4.9,1.3,11,3.1,15.4v.2ZM86.2,39.2c.4-1.3.6-2.6.9-3.8l1.6-6.3.9-3.5c.7-2.8,1-5.6,1.5-8.5s1.4-6.4,2.3-9.6l-4.1-4.5c-.7-.7-1.6-1.2-2.5-1.2l-1.6,9c-1.6,8.7-2,17.4-2.2,26.3l-.5.5c0,0,.4.5.4.7v7.1c0,0-.3,4.4-.3,4.4v2.9c0,.4,0,.6,0,1,.9-4.8,2.2-9.4,3.7-14.3l-.2-.2ZM76.6,98.1l2.2,7.5,1.2,3.9c.4-.2,0-.5,0-.8l-1.4-6.3c-.8-1.6-1.3-3.3-1.7-5-.9-3.9-2-7.5-3.5-11.3-2.2-5.7-3.1-11.5-2.7-17.5l.3-4.1c.3-3.8.7-7.5.5-11.4l-.6-13.2v-2.8c0-2.2,0-4.5.2-6.8.2-6,.3-13.9-1.9-19.4s-1-2-.4-3.5c-4,2.1-5.4,2.4-7.7,5.9l-2.2,3.4c-.6,4.7,1.7,8.5,3.1,13.6l2.1,8c.4,1.4.5,2.8.7,4.2s.7,3.2.7,4.8.2,2.6.5,3.9l1.6,7.3.8,4.5,1.2,8.3,1,6.6c.2,1.2.5,2.5.9,3.7l3,10.3,2,6.3h.1ZM82.5,77.1l1.3-4.6,1.7-6.8,1.3-6.2,1.3-6.3,1.2-5.6c.4-1.7.8-3.4,1.3-5.1l4.1-13.1c.9-2.9,2.2-5.6,3.8-8.2s2-3,2.8-4.6,1.1-2.3,2-3.4l-7.9-4.2c-.3-.1-.8-.6-1-.4-1,.8-2.8,12.5-3.2,14.7s-.7,3.5-1.1,5.3l-1.4,5.8c-.9,3.5-1.6,6.8-2.7,10.3s-.8,2.8-1.1,4.2l-.9,4.6c-.5,2.7-1,5.3-1.4,8-.4,2.7-.4,1.4-.5,2.1-.6,8.3-2,14.4-2.6,22.6l1.9-5.1,1.1-3.8v-.2ZM80.1,102l1.9,9.6c.4-.7.4-1.4.3-2.2-.4-6.4-.2-12.7.8-19,.7-5.6,2-10.9,4.2-16.2l6.3-15.7c1.7-4.2,3.2-8.2,4.6-12.4s.9-2.7,1.6-3.9l2.1-3.6c0-5.7,2-10.6,4.9-15.5s2-4.6,1.9-6.8-2.5-3-4.1-3.2c-1.7,3.4-3.6,6.6-5.7,9.9-3.9,6.3-8.7,24.5-10.1,31.9l-1.1,6-.6,2.6-.5,2.1-.3,1.6c-1.3,6-3.1,11.6-5,17.4s-2.3,8.2-2.1,10.3.3,4.8.8,7.2h0ZM69.6,78l-.9-4.9-1-7.3-2.1-11.3c-.4-2.1-1.1-4.2-1.4-6.3s.7-5-3.3-8.7-2.8-3.2-3.8-5-1.4-2-1.7-3.1l-2.6-8c-.2-.7-3.1-7.5-4.4-6.6l.9,6c1.2,7.9,5.1,21.3,9.2,28.2l3.6,6c4.2,7,5.4,13.8,6.3,21.8s-.5.7-.8.7-.3-.4-.3-.7l-.3-1.5c-.6-3.9-1.1-7.7-2.3-11.4s-1.1-3.4-1.9-5l-5.1-9-.8-1.4c-1.8-3.3-3.1-6.7-4.3-10.3-2.5-7.5-4.1-13.8-5.1-21.8s-.2-1.9-.5-2.6c-1.1-1.1-6-2.3-6.7-1.8s-1.1,1-1.1,1.4c0,3,.6,5.9,1.3,8.8l3.3,14c1.5,6.3,4,12.1,6.4,18.1l1.8,4.3,5.1,11.6c.7,1.7,1.6,3.2,2.2,4.9s.5,1,.8,1.6c2.6,4.4,4.6,9.5,6.1,14.4s.9,3.8,2.1,5.5,3.2,4,4.8,5.9.9,1.1,1.6,1.6l-2.5-5.2c-.9-1.9-1.4-3.9-2-6-.9-3.1-1.4-6.1-1.9-9.3s-.9-4.3-.3-5.6.6,0,.7,0c.6,2.7.5,3.3.9,5.5,1.7,8.7,2.6,13.2,7.2,20.8l2.4,4.1-3-9.9-1.8-6-1.2-4-.7-2.2c-1-3.4-2.1-6.8-2.8-10.4h0ZM60.3,88.7l3.2,3.9c.6.7.8,1.7,1.7,2.1-1-4.1-2.4-7.9-4.2-11.6s-1.3-2.4-1.7-3.7-.3-.6-.6-1c-2.4-4.1-4.2-8.5-6-12.9l-3.5-8.3c-2.5-5.9-4.9-11.5-6.4-17.8l-2.5-10.4-1.9-9c-.3-1.2-.3-2.3-.4-3.8l-4.5,2.2c-.5.3-.8.3-1.2.7-2,1.6-3.5,3.4-4.6,5.7s-.9,1.9-.4,3.1,1,2.6,1.7,3.8l2.4,4.4,1.6,2.8c.8,1.4,1.8,2.8,2.4,4.3s.6,1,1,1.6c2.8,4.4,4.6,9.1,6.8,13.8l3.5,7.4c.8,1.7,1.6,3.3,2.5,4.9l3.4,6.2c1.9,3.5,4.1,6.6,6.3,9.9s.8,1.2,1.4,1.9v-.2ZM98.9,75.6l.9-2.1c2.1-4.9,4.3-9.6,7.3-14.1l5-7.5c.2-.4.4-.6.7-1l1.3-2.2c1.2-2.1,2.3-4.2,3.3-6.5s2.6-5.9,4.5-8.7,1.9-3.7,3-5.8c-3.4-1.8-6.9-1.1-10.3.2s-1,1.3-1.1,1.9l-2.1,8c-.7,2.6-1.8,5-2.8,7.4-2.2,5.2-4.1,4-4.6,5.8l-3.2,11.4c-2.2,7.7-4.3,15.1-6.8,22.9.7-1,1.4-2,1.9-3l3.2-6.8h-.2ZM46.5,76.6c1.4,2.2,7.2,7.9,9.9,9-3.1-4.9-5.9-9.4-8.4-14.4l-2-4-7.5-16.2c-1.6-3.3-4.2-8.1-6.1-11.2s-2-3.4-2.9-5.2l-3.2-6.5c-2.4,4.1-4.2,4-6.9,7.3,1.4,3.6,3.1,6.7,5.1,9.9l2.5,4.1c.4.6,1,1.4,1.5,2,3,4.1,7.6,8.8,9.8,12.2l3.3,5.1,5,7.8h-.1ZM96.5,83.3l2.6-3.4,1.4-2c2.9-4,6.2-7.6,9.6-11.2l7.8-8.3,6.4-6.7,6-6.4c2.5-2.7,5.2-4.9,8-7.3-2.3-2.6-4.4-5.1-7-7.2s-3.5-1.7-5.4-2.4l-2.7,5.3c-1.4,2.8-2.4,3.2-3.9,7.1s-4,8.3-6.6,12.3l-5.9,9c-.5.7-.9,1.3-1.3,2.1l-3.2,6.3-2.9,6.7-3,6.2h0ZM66.1,98.4l-3.6-4.8-3.9-4c-2-2.1-4.3-3.7-6.6-5.4s-6.2-6.1-7.6-8.2l-4.6-7.2c-1.7-2.6-3.2-5.3-5.3-7.7l-5.2-6.1c-.8-1-1.6-2.1-2.3-3.2-3.2-4.4-6.5-10-8.7-15.1-.4.5-.9,1.2-1.3,1.9-2.7,4.6-4,6.8-.2,11.5l3.3,4.2c3.4,4.4,7.8,5.6,12.1,10.2,4.3,4.6,1,2,1.5,2.8.8,1.2,2.4,2,3.4,3.1l3.7,4,6.4,6.6c2.7,2.8,5.2,5.5,8.2,8.1l10.8,9.4h-.1ZM106.5,80c2-2.2,8.6-8.2,10.9-10s3.2-2.5,4.9-3.7l4.4-3,7.4-4.9c3.6-2.4,6.9-5.1,9.6-8.7,0-2.2-.8-4.5-1.3-6.7s-.6-2.1-2.1-2.3l-1.3-1.5-4.6,3.9c-1.6,1.4-3.1,2.9-4.6,4.5l-5.9,6.3-5.6,5.8c-4.7,4.9-16.4,17.5-19.8,22.8s-5.7,9.4-7.5,14.5-1.4,3.4-1.8,5.6c2.7-5.9,6.7-10.9,11.2-15.8l6.1-6.7h0ZM87.9,88.1c.8-3.4,1.5-6.5,2.5-9.7s1.6-4.8,2.2-7.3,1.7-5.8,3.1-8.5l4.4-8.5,2.1-4.2c.2-.4-.2-1.4-.4-1.9-.7-2.1-.2-4,0-6.4-1.2,1.6-2.4,4.6-3,6.6-2.1,6.6-4.8,12.7-7.4,19.1s-3.2,7.7-4.5,11.7c-2.5,8-3.3,16.3-3.5,24.7s0,1.5.3,2.2l4.4-17.9h-.2ZM103.5,84.9l-2.6,3c-3.3,3.8-10.3,11.7-10.9,17,7.5-10,14.9-16.5,25.3-22.9s12.7-8.9,18.3-13.6,6.4-5.8,10.5-7.7c0-3.1,0-5.8-.2-8.8-.6.4-.8.7-1.3,1.1-2.4,2.5-7.2,5.9-10.2,7.9l-4.3,2.9-4.1,2.8c-2.5,1.7-8.2,6.2-10.4,8.3l-3.4,3.1-2.2,2.1-4.6,4.8h0ZM66.7,101.2c0-.4,0-.7-.4-.9-7.7-6.1-14.7-12.6-21.4-19.7l-8.2-8.7c-1.3-1.4-2.7-3-4.5-3.6l-3.1-1.2c-2.2-.8-3.8-2.5-5.5-4.1s-4.3-3.1-6.6-4.5l-3.4-2.1c-1.6-1-5.6-3.8-6.3-1.4,3.2,5.2,7.5,9.4,12.4,12.8l7.1,4.9,3.8,2.6c2.4,1.6,3,2.4,5.3,3.8,4.3,2.6,8.3,5.5,12.3,8.5l4.1,3.1,8.1,6c2.1,1.6,4,3,6.3,4.4h0ZM86.8,122.4l-.5-9.1c0-2.6,0-5.2.6-7.8.8-4.1,1.8-8.2,3.1-12.2l1.2-3.8,1.7-5.4,3.9-12.6,1-3.5,3.4-13-.7,1.3-2.1,3.9-1.8,3.7c-.7,1.4-1.5,3.1-1.9,4.7-1.1,4.2-2.1,8.2-3.6,12.3s-.5,1.5-.6,2.2l-2.1,8.7-3.9,16.2c-.3,1.2-.2,2.7-.2,3.9,0,3,0,8.9,2.5,10.4h0ZM36.2,82.8l5.5,1.7c-5.2-3.4-11.1-7.4-16.1-11.1s-.3-1.2-.5-1.1l-.8.2c-3.8-2.6-7.7-5-11.1-8.3s-4.7-5.5-7.1-8.3c-1.2,2.3-2,4.5-2.6,6.8,1.1,1.7,2,3.2,3.1,4.7l1.7,2.2c5.6,7.3,10.2,6.5,19.5,10.4s5.5,1.8,8.5,2.7h-.1ZM94.8,104.2c1.7-2.4,4.8-6.2,6.8-8.2s5.2-4.5,7.9-6.7c4.1-3.3,8.3-6,12.6-8.9l3.4-2.4,2.7-1.8c2.8-1.8,5.4-3.6,8.3-5.1s4.4-2.3,6.3-3.8c.9-1.3.9-3.2,1-4.9-1.8.9-3.5,1.8-5,3.1s-3.5,3.1-5.3,4.5l-5.1,4.1c-8,6.5-17.3,11.2-24.8,17.6s-9.1,8.8-12.8,14-1.8,1.9-2.1,3.1c-.6,2.3-.9,4.7-.6,7.3,1.1-2.8,2.1-5.3,3.8-7.7l3-4.2h-.1ZM82.1,119.5c0-.9-.4-1.7-.9-2.4l-5.4-7.1c-1.6-2.1-3.9-4-6.1-5.4l-5.1-3.1c-4-2.4-9.1-6.9-13.3-9.7-15.8-10.4-14.2-6-28-12.2s-3.9-1.2-5.8-1.9c-8.2-3-9.5-6.4-14.5-13.3l-.8,4.8c1.9,1.7,3.5,3.5,5.6,4.9,3.1,2.1,6.5,3.6,9.7,5.4,3.2,1.8,3.5,2.5,5.5,3.4l11.9,4.8c3.4,1.4,6.4,3.1,10,4.2,8.6,2.7,17.9,7.7,24.3,14l2.1,2,2.8,2.9,4.5,4.3c1.4,1.3,2.3,2.8,3.5,4.2v.2ZM90.5,119.4c1.2-4.3,3.3-8.1,5.4-11.9s2.8-4.6,4.9-6.5,3.5-3.2,5.6-4.5l8.9-5.5,5.7-3.4c.9-.5,1.7-.9,2.7-1.2l5-4.4c3.7-3.3,7.3-6.5,11.1-9.7s1.4-1.3,1.7-2.2l-7.1,3.8c-3.2,1.7-18.2,12.1-21.7,14.7s-10.6,8.3-13.9,12.7l-4.7,6.3c-1.9,2.6-3.4,5.4-4.4,8.5s-.6,4.9-.2,7.2l1.1-4h0ZM86.6,128.6l-4.9-7.3c-1.3-2-2.6-3.8-4.3-5.5l-10.1-10.1c-.5-.5-.7-.7-1.3-1.1l-4.4-3.3c-2.2-1.6-4.5-2.8-6.9-3.9s-2.5-1.4-3.8-1.9-3.5-1.5-5.3-2.1c-3.3-1-6.2-2.2-9.3-3.7-8.2-4-9.5-2.9-18.6-8.4s-5.7-3.2-8.7-4.8-4.6-3.4-6.8-5.4c0,1,0,2.1,0,2.8l2.1,1.6c2.6,2,5.2,3.8,8,5.4l2.9,1.6,8.3,4.3,3.7,1.9c4.7,2.5,9.2,5.1,14.1,7.2s9.3,3.7,13.7,6.1l2.8,1.5c7.4,3.9,11.6,5.6,16.6,13.1s2.4,3.8,4,5.4,3.1,2.5,4.6,3.8,3,2.5,3.5,2.7h.1ZM74.7,119.6c-2.6-4.4-6.4-9-10.5-11.3l-13-7c-1.3-.7-2.7-1.2-4.1-1.8-4.1-1.6-8-3.2-11.9-5.3l-5.2-2.7-5-2.8c-5.3-2.9-10.8-5.3-15.9-8.7l-1.4-.9-5.6-4c-.7,1.6,0,3,.2,4.5l.3,1.7c2.1,2.4,7.8,6.9,10.5,8.4,4.8,2.7,9.7,5.2,14.9,7.1l5.3,1.9,6.9,2.3c4.7,1.5,9.1,3.3,13.3,5.8l9.3,5.5,2,1.2,10,6h0ZM78.8,124.7c-.8-1.2-2-2-3.3-2.9l-9.5-6-5.2-3.2-1.6-1-9.5-5.4c-4.1-2.3-8.5-3.5-12.9-5l-7.4-2.5c-8.5-2.9-20.5-9.1-26.8-15.7l-1,1.4c3.1,7.4,4.7,7.8,10.3,12.6,5.6,4.8,4.1,3,6.3,4.4s5.8,2.4,8.8,3.4l5.9,1.8c4.2,1.3,8.3,2.2,12.6,3.1s11.3,3.8,16.6,6.8c5.3,3,10.7,5.8,16.7,8v.2ZM98.8,114.9l1.4-1.9,3.1-4.7c2.8-4.2,6.2-7.9,9.6-11.7s5.6-4.9,6.9-6.8l-10.4,6.3c-3.1,1.9-5.8,4-8.4,6.4s-4.7,6.6-6.3,9.9c-3,6.1-5.6,13.5-3.3,20.3-1-6.9,3.6-12.4,7.5-17.8h0ZM135.5,118.5c1.7-7.5,0-3.1-.1-7-.4-8.2,3.3-10.5,5-15.7s-.6-1.3-1.2-1.2-1.7.2-2.1.6c-1.2,1.2-1.8,2.5-2.5,4-1.4,3.2-2.5,6.6-2.2,10.2s.5,4,.8,6.1l.7,5.3c.2,1.7.2,3.3.3,5.1.6-3.1.4-3.8,1.2-7.4h.1ZM135.7,127.6l1.4-4.1c.7-1.8,1.6-3.4,2.6-5.1,4.4-7.3,1.9-9.2,7.4-17.5s2.2-3.3,4-4.5c-1.1-.6-3-.9-3.9,0-2.5,2.7-3.1,5.6-4.7,8.8s-2.3,5.2-3.8,7.4-.9,1.8-1.2,3c-.8,3.9-1.9,7.7-1.8,11.8v.2ZM133.2,133.8v-7c-.2-2.4-.2-4.7-.5-7.1-.4-3.6-1.3-7-1.4-10.5s1.2-8.8,3.5-12.9c-2.8,1.2-4.8,2.8-6.8,4.7-.5,2.4,0,5.9,0,8.3.1,2.4.6,5.8,1.3,8.6l1.3,5.2,2.5,10.6h0ZM136.6,132.3c.8-1.8,2-3.4,3.1-5,2.7-3.9,4.8-8,6.6-12.3l1.3-3.1c2.1-4.9,5.1-8.8,9-12.8l-3.7-2c-2.1,1.1-3.4,2.6-4.7,4.5-5.6,8.1-2.6,9.6-8.2,18.8-1.9,3.2-3,6.5-4,10s-1.2,3.5-1.5,5.9c.8-1.3,1.3-2.5,2-4h0ZM141.7,127.7c2.9-5.2,6.1-9.9,9.9-14.4,2.2-2.6,4.7-4.6,7.6-6.3s1.1-.8,1.6-1.3c-.5-2.2-1.5-4.1-3.2-5.8-4.2,3.9-7.4,8.6-9.5,13.9s-2.6,6.6-4.5,9.7l-5.8,9.3c-.9,1.5-1.6,3.1-2.1,4.8,2.2-3.2,4-6.4,6-9.9ZM131,144.3c1.3-2.2,1.2-4.4,1.2-6.8-.1-1.9-.5-3.7-1-5.5l-.7-3.1-2.5-10.7c-.6-2.6-1.2-5.3-1.3-8l-.2-4.6v-3.3c-4.3,2.4-2.2,11.2-.8,14.8l1.5,4c1,2.7,2,5.2,2.6,8,.6,2.8.9,4.4,1,6.7v8.4h.2ZM125.2,127.3l2.5,6.2c.6,1.5,1.2,2.9,1.9,4.4,0-6.2-1.6-11.8-3.9-17.3s-3.2-8.5-3.1-13.5l-3.5,3.6c.3,3,.7,6,2.2,8.6s2.4,4,3.9,7.9h0ZM136.9,140.7c.4.6.6.8.7.7l.4-.4-.6-.6c-.1-.1.2-.6.3-.8l6.4-9.1,4.6-6.6c3-4.4,7.2-7.2,11.4-10.4s3-2.1,4.7-3.1c-1.2-1-2.2-1.8-3.2-3.1l-2.5,1.4c-2,1.2-3.7,2.5-5.3,4.3-2.9,3.2-5.6,6.4-7.8,10.2l-7.8,13.1-4.3,6.9c-.4.7-.7,1.2-.2,2.1l1.2-1.8,1.9-2.7h.1ZM88.3,132.2c-1.5-1.5-3.2-2.9-5-4.1s-5.3-2.3-6.4-2.7c-5.4-2.2-10.5-4.8-15.6-7.7s-8-4.4-12.5-5.7-9.7-2.6-14.9-3.8c1.3.8,2.7,1.3,4.1,1.9l5,2.7c4.5,2.4,8.7,4.8,13.7,6.1s11.8,3.3,16.4,6,7.9,4.9,11.3,8l8.2,7.5c0-1.8-3.3-7.1-4.4-8.1h.1ZM151.7,129.4l3.7-2,2.7-1.5c1.2-.7,2.1-2.2,3.3-3.1l3.6-2.7c1.5-1.1,3-2.2,3.8-4.1s-.8-3.9-2.6-5l-3.4,2c-2.1,1.2-10,7.5-11.5,9.6l-9.6,13.4c-.9,1.3-1.8,2.3-2.6,3.8l6.5-5.8c1.9-1.7,3.8-3.4,6.1-4.7h0ZM129.4,147.4c.2-2.1.1-3.9,0-5.8l-2.8-7.2-1.3-3.4-.5-1.3c-.8-2.2-1.6-4.4-2.7-6.4-2.1-3.8-3.6-6.7-4.1-11.4-.8.6-2,1.4-2.3,2.4-.5,1.8,2.3,8.7,3.2,10.5l4.4,8.7,1.4,2.7,1,2.1c1.5,3,2.6,5.9,3.6,9h.1ZM116.5,121.9l-2-6.1c-.8,2-.4,4,.5,6,1.5,3.1,3,6.2,5.2,9.1-.6-3-2.6-5.5-3.7-9ZM162.1,130.1l4.2-2.2c1.2-.6,2.3-1.3,3.6-1.9,2.5-1.1,5.3-1.7,8.1-1.3-.2-1.5-1.6-2.1-2.9-2.4-2.4-.5-4.7-.4-7,.7l-2.7,1.3c-2.5,1.3-4.8,2.6-7.6,3.2l-6.2,3.4c-4.3,2.3-7.5,6.1-11,9.7,4.2-2.3,8.2-4.5,12.5-6.5l9-4.1h0ZM179.1,134.7c1.3-1.4.2-5.9-.2-7.8-2-2.1-7.4-.4-9.6.8-3.5,1.9-6.9,3.6-10.5,5.3l-4.8,2.2c-1.4.6-2.9.9-4,2,9.8-3.9,18.7-5.9,29.1-2.4h0ZM168.9,138.1c5.9.6,4,.4,7.7,4.5.4-2.4,1-4.3,2-6.5-2.5-.7-5.2-1.7-7.9-1.8-9.9-.5-19.9,3.2-28.5,8.5,1.9-.2,3.1-1.3,4.8-1.8,4.2-1.2,8.3-2,12.7-2.7s5.9-.6,9.2-.2ZM165.9,144.9c2.7,1.7,5.5,3,8.6,4.1,1.2-1.3,1.8-2.9,1.7-4.6l-2.4-3.1c-1-1.3-2.1-1.8-3.8-2l-4.2-.5c-2.3-.3-16.1,1.9-18.7,3.4l6.5-1.1c1.5-.3,3.1,0,4.6.3,3.2.5,5.1,1.7,7.7,3.4h0ZM171.5,152.9c-.3-.9-1.4-1.5-2.5-1.9-2.1-.8-4.1-1.7-5.9-3v-.6c-.2-.1-.8,0-.9-.1-1.6-.9-3.3-2.6-4.3-4.3-1.1-.1-2.3-.6-3.3-.5-2.5.3-4.7.6-7.2,1.3,4.4-.2,9.1-.7,12.3,3.2s2.5,3.1,4,4.4,3.6,3.3,5.1,5.3.7.6.9.5c1.4-1,2.2-2.5,1.7-4.2h0ZM168.5,158.5c-1.8-2.3-3.1-3.7-5.1-5.7l-1.6-1.6c-1.9-1.9-3.3-4.3-5.3-5.3-2.9-1.5-7.9-1-11.2-.5s-5.3.9-7.6,2.4c7.9-1,11.7-1.3,17.8,4.2l6.7,6c1.2,1.1,2.2,2.4,3.5,3.6l2.8-3.2h0ZM163.1,165.1l1.8-2.2c-1.3-1.4-2.4-2.6-3.7-3.9s-3.8-3.2-5.5-5c-5.5-5.9-10.3-6.4-18-4.7,3,.8,5.7,1.9,8.3,3.6l6.2,3.9c1.9,1.2,3.6,2.6,5.4,4s3,2.3,4.1,4,1.1.8,1.3.5v-.2ZM161.1,165.9l-1.6-1.9c-2.6-2.3-5.2-4.6-8.1-6.4l-4.7-2.9c-3.4-2.1-6.8-4.1-11-4.4,2.8,2.2,5.7,3.8,8.6,5.7s3.1,2.4,4.7,3.6c1.2.8,2.5,1.5,3.8,2.2,4,2.1,5.6,5.9,8.3,4h0ZM128.8,157.7c.3-1.7,0-2.8-.2-4.1-.2.3-.3.6-.3.9l.5,3.2h0ZM127.8,174.6c-1.1-1.2-2.2-2-3.4-2.7,1,1.2,2.3,2.1,3.4,2.7ZM158.8,194.4c-.9-1.1-2-1.8-3.3-2.1,1,1,2,1.7,3.3,2.1Z"/>
  <path d="M87.4,138.3c1.6.9,7.9,7.1,8.1,8.4-2.9-2.9-5.5-5.4-8.1-8.4Z"/>
</svg>