<?xml version="1.0" encoding="UTF-8"?>
<svg id="Layer_1" xmlns="http://www.w3.org/2000/svg" version="1.1" viewBox="0 0 157.9 91">
  <!-- Generator: Adobe Illustrator 30.1.0, SVG Export Plug-In . SVG Version: 2.1.1 Build 136)  -->
  <path d="M6.2,0c.8.3,1.8.4,2.9.5,2.6.2,5.1.8,7.7,1.2l10,1.5,5,.7,10.3,1.7c3.2.5,6.5.7,9.7,1.6s3,1.1,4.7,1.2l4.3.4,13.4,1c2.2.2,4.4.4,6.5.7l5.6.8c6.5.9,13,1.3,19.7.9l2.9-.2,7.1-.3h16.4c4.7-.2,13.8-.5,17.1,3.6s3.3,4.1,4.8,6.4,2.7,8.7,2.8,10.5l.5,9.4c.3,6.1-.2,5.6-.2,11.1s-.2,3.7-.3,5.6-1.6,3.3-3.6,3.1l-2.1-.2c-.3,1.4-.5,2.5-.8,3.8s-1.7,2.6-3,2.3c-2.5-.5-4.5-1.8-6.5-3.2-5.3-3.7-10-7.9-14.9-12s-4.2-3.6-6.8-5c1.8,2.3,3.8,4,6,5.8,3.1,2.5,5.9,5,8.7,7.8s3.1,2.9,4.7,4.3c2.6,2.2,4.3,5.4,5.3,8.7-.8,1.4-2.1,1.7-3.2,2.5-6.3,4.5-7.6,11-16.4,11.6-2.1.1-4.2-.4-6.3-.7s-1.2-.1-1.7-.3c-2.9-1.1-2.9,1.3-5.8,3.1s-6.9.8-8-1.7-.6-2.9-1.1-4.2c-1.5-4.4-3.4-8.4-5.2-12.7s-4.6-10.3-7.6-15.2-7.3-11.6-11.6-17.1l-4.9-6.3c.2-.4,1.1-.4,1.3,0l5.6,7.1c1.4,1.8,2.6,3.6,3.9,5.4,2.7,3.8,5.1,7.6,7.5,11.5s3.9,7.2,5.6,11.1l3.8,8.7c1.6,3.7,2.9,7.3,3.9,11.2.3,1.1,2.1,1.3,3,1.5,4.1.8,4.2-2.3,7.4-4.1-3.3-2.7-6-5.5-8.5-8.8l-7.5-10.1c-4.5-6.1-8.6-12.2-12.8-18.6s-5.2-7.6-8.3-11.2l-4.2-4.9-.6.4c-.2.1-.9-.1-1-.3l-4.1-5.3c-5.5-7.1-7-8.9-14.8-13.4s-1.8-.7-2.8-1.1c-5.6-2.3-10.8-5.1-16.9-6.3s-15.7-1.9-23.6-2S.2,4.3,0,3.4v-1.9C1.8-.1,1.7.7,2.9,0h3.4ZM130,13h-2.3s-4.1,0-4.1,0h-12.6c-4.9.2-9.6.8-14.5.5s-7.2-.5-10.9-1l-8.4-1.2c-1.4-.2-3.1-.3-4.6-.4l-5-.3c-2.5-.2-4.8-.4-7.4-.4,3.5.9,6.7,1.8,10.2,2.2l5.7.7,8.5,1.4,10.5,1.5c12.2,1.8,24.3,3.3,36.6,4.4l8.4.8c4.7.4,9,1.4,13.6,2.4-.4-1.4-1.4-2.3-2.2-3.4-1.2-1.7-4-5.6-6-6.2-6.1-1.7-9.5-1.4-15.6-1.2ZM141.1,72.2c-3.7-2-15.1-11.3-17.8-14.2l-8.6-9.3c-.6-.6-1.2-1.5-1.8-2l-2.3-2-15.3-12.7c-2.2-1.9-4.4-3.4-7-4.8l-9.6-5-7.7-3.6c-5.5-2.5-10.9-6.1-17.6-7.4.5.6.9.8,1.5,1.2,4.5,3.1,8.7,6.1,13.6,8.7s13.9,4.3,21.9,9.1,10.5,7.2,14.9,11.9l14.1,15.3,3.3,3.7c4,4.4,9.2,9.1,14.7,11.6s3.9,1.4,4.5,1.1.8-.9.6-1.1l-1.4-.7ZM154.4,25.2l-7.4-1.6c-2.7-.6-5.6-.9-8.5-1.1l-7.2-.6-8.2-.8-12.3-1.5-25-3.8-2.2-.4-7-1.1-11.3-1.7c2.9,1,5.8,1.7,8.8,2.5l10,2.1c1,.2,2.2.5,3.2.4,4.6-.4,8.4,2,11,2.4l19.8,3c7.6,1.2,14.7,1.2,21.8,2.9s10.2,2.6,15.5,4.6l-1-5.5ZM149,56.5c1.1.7,5,3.5,6,3.3s.9-6,.9-7.1c-3.8-3.2-7.7-6.2-12.2-8.4l-7.1-3.5c-4.4-2.1-8.9-3.7-13.6-5.1l-5.7-1.7c-3.4-1-6.8-1.7-10.2-2.8s-6.4-2.5-9.6-3.8l-10.4-4.2c-7.8-3.1-13.2-7.6-21.8-8.9l4.2,2.3c.4.2.7.7,1.3.7l6.3,2.8,6.8,3.5,3.6,2c2.3,1.3,4.8,2,7.3,2.9,3.7,1.3,7.1,2.8,10.7,4.3l7.1,3.1c4.3,1.9,8.5,3.5,12.7,5.7l2.2,1.2c1.1.6,2.2,1.2,3.2,1.9l10.2,6.9,8.1,4.9ZM156.4,44.2l-.3-6.1c-6.1-2.3-12.1-4.3-18.3-6l-11.1-3-14.2-3.4-7.7-2.2-7-1.9-13.1-3.1-7.5-1.6c2.6,1.5,4.9,2.7,7.5,4s3.2,1.3,4.9,2l9.6,3.9,7,2.8c5.7,2.3,19.2,4.6,27.8,8.7l7.8,3.7c5.2,2.4,9.6,5.5,14.1,9.1.3-2.5.6-4.6.5-6.9ZM119.3,77.5c-2.4-2.1-4.7-3.8-6.6-6.2l-6.1-7.4-9.5-11.8c-2.6-3.2-5.1-6.3-7.9-9.4s-1.1-1.4-1.7-2.3-1.8-1.5-2.5-2.4-1.5-1.9-2.4-2.7l-3.3-3.3c-4.3-4.3-8.8-8.1-14.2-11.2.9,1.5,2.2,2.7,3.4,4.1l8.8,10.4c3.4,4,6.4,8.1,9.3,12.5s7.7,11.7,11.9,17.5l7.6,10.4c2.6,3.5,5.5,6.8,9.2,9.2s3.9,1,5.7,1.5c2.7.7,7.4-.2,9.4-2.3-4.5-1.3-8-3.6-11.4-6.6ZM156,36.7v-4.6c-5.5-2-10.9-3.5-16.6-4.9s-5.2-1.1-8-1.3c-5.7-.5-11.2-1-16.8-1.9s-5.8-1.1-8.9-1.4c3.1,1,6.1,1.9,9.3,2.6l15.7,3.7,5.3,1.4,11.4,3.4,4.1,1.4,4.5,1.6ZM137.6,74.4c-3.3-1.5-6.1-3.3-8.8-5.5s-2.7-2.1-3.8-3.4l-5.8-6.2-10.4-11.6c-6.7-7.4-14.8-14.8-23.9-18.9s-5.6-2.5-8.6-3.1l13.1,9.8c4,3,7.3,6.7,10.8,10.3l12.2,12.5,1.5,1.6,5.7,6c.5.5,1.2,1.1,1.8,1.6,4.7,3.8,10.2,6.8,16.2,7ZM138.9,75.8c-5.3-.3-9.6-1.7-13.7-4.3-3.1-1.7-5.6-3.8-8-6.4l-5.2-5.6c-.5-.6-1-1-1.5-1.6l-13.7-13.8c-2.7-2.7-5.2-5.2-8.1-7.7s-3.4-2.4-5.1-3.7-4.6-3.5-7.1-5.1c1.4,1.6,3,2.9,4.5,4.5l3.6,3.8c1.5,1.5,2.9,3,4.6,4.2,2.8,2.1,5,4.5,7.5,7l16,15.8,1.5,1.6c5.9,6.1,13.6,11.7,22.1,13.7l2.5-2.4ZM149.7,62.1c.2-.7.4-1.3.5-1.6s.9-.4,1.5-.6c-2.3-1.7-4.8-3.1-7.4-4.6-6.7-3.8-13.6-9.4-19.6-12.5s-8.3-3.8-12.6-5.6l-3.4-1.4-2.3-1c-3.7-1.7-7.3-3.4-11-4.6,4,3.2,8.3,5.7,12.5,7.6s2.7,1.4,3.8,2.4,1.6.8,2.3,1.3l8.2,6.1c2.6,1.9,5.4,3.3,8.2,4.8l6.1,3.3c4.3,2.4,8.5,4.7,13.2,6.5ZM133.7,62.3l-3.7-3.6c-.3-.3-.5-.5-.8-.8l-3.4-2.8c-2.3-1.9-4.7-3.7-6.7-6l-4.4-4.9c-2.1-2.4-4.9-3.9-7.7-5.4l-4.5-2.5c1,1,1.9,1.9,3,2.7,5.1,4,9.8,8.2,14.1,13.2s7.9,7.9,13.6,12.6,5.2,4.2,8.3,6c-2.2-4.4-4.3-5.1-7.7-8.5ZM133.1,82l2.4-2.8c-3.3-1.2-6.3-2.1-9.2-3.8s-7.5-5-10.8-8.2l-11-10.6-8.1-7.9-2.8-2.8c.9,1.5,2,2.5,3,3.8l8.6,10.6c1.2,1.5,2.4,2.8,3.5,4.4,2.7,3.6,5.4,6.9,8.9,9.8s2.6,2.1,3.9,3.3c2.6,2.4,5.8,3.8,9.1,5s1.6,0,2.4-.8ZM148.1,65.9c1.1-.3,1.3-1.9,1.4-2.6-2.8-1.2-5.5-2.1-8.2-3.6l-11.7-6.4c2,2.2,4.2,3.8,6.4,5.6s5.1,3.9,8,5.7,2.7,1.6,4.1,1.3Z"/>
</svg>