<?xml version="1.0" encoding="UTF-8"?>
<svg id="Layer_1" xmlns="http://www.w3.org/2000/svg" version="1.1" viewBox="0 0 177.8 148.1">
  <!-- Generator: Adobe Illustrator 30.1.0, SVG Export Plug-In . SVG Version: 2.1.1 Build 136)  -->
  <path d="M99.5,0c4.4.3,10.3,2.7,13.8,5.8l7.7,6.9c4,3.6,9.3,1.2,11.3,4.4s1.1,3.8,1.1,5.1-.4.6-.5.7.3.3.4.4c.3,5.7.4,7.8-2.5,12.9l-5.3,9.1c-1,1.7-2.1,3.4-3.2,5l-4.1,6c1.8-1.1,3-2.5,4.3-3.9l3.5-3.6,4.7-4.5,6.2-6c2.4-2.3,5-4.5,8-6l4.9-2.4c.9-.5,2.7-.4,2.9.6-.2,1.4-1.4,3.3-.4,4.6l6.4,7.7c2.1,2.5,3.5,5.5,5.1,8.3s2.1,4.8,2.4,7.3c1.2,9.6,6.8,10.6,10.7,18.3l.7,2.2v2.6c-.3,2.1-1.4,4.8-3.7,5.7s-4.8,2.4-7.1,3.8-4.3,2-6.5,3.1c-7.3,3.6-15,5.5-22.9,7s-8,2.4-11.9,4.1c-9.3,4.1-20.9,7.9-30.8,10.2l-9.1,2.1c-5,1.2-9.8,2.6-14.7,4.5s-7.3,2.6-11.1,3.8-3.1,1.3-4.5,2.2l-5.4,3.7c-5.1,3.4-18.4,6.9-25.9,10.3-6.7,3-13.6,4.9-20.9,5.4-1,0-2.1.6-3,0-.4-.6.7-2.9,2.2-3.3,5.1-1.5,10.1-2.5,15.3-3.6l7-1.4c2.7-.5,5.3-1.4,7.8-2.4l5.5-2.4c2.2-.9,4.2-2,6.2-3.1,4.1-2.2,9.8-5.8,12.6-9.5s2.6-3.1,4-4.7,1.4-2.1,2.1-3.1l6.6-10.1c.8-1.3,1.6-2.7,2.2-4.1s.5-3.8.7-5.8c.8-8,2.8-13.7,3.4-22.3s.4-17.1.4-25.8.2-6.5.4-10.1l.4-6.2-1.2-9.8c-.5-4.2-.8-8.1.4-12.2s2.5-5.8,5.4-6.1c5.2-.7,10.2-.4,15.1-1.6h2.6ZM84.6,76.6l1.9-8.3.9-4.8,2.3-13.1c1.4-7.8,5.8-16.6,8.2-24.8l1.3-4.7c1-3.7,1.7-7.4,1.6-11.2l-.3-8.2c-1.4-.2-2.9-.2-4.4,0l-4.8.7c0,.5-.5,1.3-.6,1.8l-1.4,11.5c-.8,6.5-.7,12.8-.6,19.3s-.7,12.6-1.8,18.9-3,10.7-4.3,16.1l-2,8.5-1.3,4.8-1.9,8c-.7,2.8-1.8,5.3-2.2,8.2,4-7.8,7.6-14.3,9.4-22.7ZM77.4,97.8c2-2.4,3.3-4.9,4.7-7.5s3.4-6,4.9-9.2,3.2-6.9,4.3-10.5l4.3-14.9,6.1-19.6,3.4-11c2.1-6.6,3.9-13.1,4.7-20-2.2-1.7-4.9-2.9-7.8-3.2-.4,7.5.8,10.6-1.3,18.1s-2.2,8.4-3.8,12.5c-7.8,19.5-5.7,20-9.7,38.7s-2.7,11.6-5.1,17.1l-4.6,9.6ZM80.8,65.2c0,1.7.3,3.2.5,4.9l1.4-5c.7-2.4,1.4-4.6,2-7,2-8.3,2.9-16.7,2.7-25.3s-.3-9.9.3-14.9l.9-7.9.9-7.8-3.7.3c-.5,3.8,0,7.8-.6,11.4s-2,9-3.3,13.5-.8,3.7-1.2,5.5c-1.1,5-1.1,8.5-.9,13.6l1,18.7ZM68.4,110.2c1.3-1.8,2.5-3.4,3.4-5.3,2.8-6.8,4.7-13.8,6.3-21s2.6-8.9,1.7-16.5l-.3-2.4-.4-8.4-.3-6.5c-.2-4.2-.6-8.2-.1-12.4s1.6-8.7,2.7-13c1.8-6.8,3.3-11.2,3-18.4s0-2.3,0-3.7c-.8,0-2.1,0-2.9.3-4.9,2-5.1,9.6-4.7,14.1s.7,7.4,1.3,11.2,0,4.7-.2,7l-.4,8.2c0,1.9,0,3.7,0,5.6.2,11.1.4,24.6-2.2,35.4-1.1,4.7-1.4,9.3-1.9,14s-2.4,5.9-4.1,8.4-3.8,5.7-5.6,8.9c2-1.5,3.2-3.5,4.7-5.5ZM69.3,112.3l3.7-4.6c.7-.9,1.2-1.8,1.9-2.7l2-2.7,2.1-3,8.3-13.3,4.9-7.3,5.5-8.1c2.6-3.8,4.5-7.7,5.5-12.2l3.1-13.9c.6-2.8,1.6-5.3,2.6-7.9,3.1-8.9,4.6-16.8,7.6-25.9-1.7-1.8-3.6-3.6-5.6-5.1-.8,5.9-1.9,11.2-3.7,16.6l-2.7,8.6-2.1,6.5-1.7,5.3-6.1,20.9c-2,6.8-3.5,12.1-6.7,18.5l-1.3,2.5-4.6,8.3c-3.2,5.8-8.5,12.2-12.1,17.9-.8.7-1.4,1.4-2.1,2.3l-6.1,7.4c2.9-1.5,4.4-4.2,6.2-6.5l1.2-1.6ZM83.6,95c4.2-4.9,7.9-9.7,11.4-14.9l8.3-14,5.6-10.4c3.1-5.8,5.6-11.9,7.8-18.1l1.8-5.4,1.4-4.3,2.6-8.3c.8-2.5.5-3.7-1.3-5.2l-3.6-2.9c-1.2,3.5-2.2,7-3.1,10.6s-2.7,9.5-4.2,14.2l-2.4,7.5c-.5,1.6-.8,3.3-1.2,5l-1.7,7.8c-.7,3.3-1.5,6.6-3.2,9.6s-1,1.9-1.6,2.8l-7.6,11.1-7.4,10.9c-.3,1.5-1.8,2.3-1.7,3.9ZM107.8,67.2c.5-.6.9-1,1.3-1.5,1.6-1.7,2.7-3.8,4.3-5.6l2.7-3.2c4.7-5.6,11.2-16.9,14.8-23.5s1.4-4.9,1.3-7.5c-.2-4.7.4-2.5-.7-7.2s-4.5-2.3-6.9-2.5c-1.4,5.9-3.2,11.3-5.1,16.9-4.1,12.3-9.1,23.5-15.8,34.6l-1.2,1.9-5.7,9.4-4.5,7c1.9-1.7,3.2-3.8,4.6-5.8s3.1-4,4.8-6l2.2-2.6,3.6-4.3ZM101,77.2l10.9-10.1,3.4-3.1,8.8-7.8c7.3-6.5,23.6-17.2,27.3-25.7-5.5,2.3-8.9,4.6-13.2,8.1-2.1,2.5-4.5,4.3-6.8,6.6l-11,11-6.6,5.5-6,7.1c-2.4,2.8-4.7,5.4-6.8,8.3ZM84.7,100.3l7-6.8c3.3-3.4,6.9-6.3,10.6-9.3l5.4-4.4,10-8,1.8-1.5,7.7-6.9,6.8-6.2,7.2-6.2c5.9-5.1,6.7-6.2,10.6-12.9s-.3-1.7-.8-4.1c-1.1,1.6-2.3,3.4-3.8,4.7l-5.3,4.8-13.2,10.7c-7.9,6.4-20.7,17.7-27.7,24.7l-2.4,2.4c-1.1,1.1-2.3,2.2-3.2,3.4l-5.1,6.6-3.3,4.1-3.4,4.3c-1.3,1.7-2.9,3.1-3.8,5.1,1.8-1.6,3.4-3,5.1-4.7ZM76.3,113.4l7-5,6.2-4.4c4.2-3,8.3-5.8,12.2-9.1l6.4-5.4,10.6-9,4.1-3.6c2.8-2.4,5.5-4.7,8.4-6.9l7.1-5.3,1.6-1.2c5.2-3.9,7.5-5.8,11.8-10.7,2.5-3,4.4-6.1,5.8-9.9l-4.4-4.9c-3.8,6.7-4.9,8.5-10.6,13.4l-4.3,3.8-10.5,9.4c-5,4.5-9.9,8.7-15.1,12.9l-5.5,4.4-7.6,6.1c-1.9,1.5-3.7,3.1-5.5,4.8l-10.1,9.8-11.6,10.5-2.6,2.4c-1.8,1.7-3.6,3.3-5.4,5.2,1.2-.4,2.4-1,3.2-1.9,3.7-3.6,3.5-1.7,8.6-5.3ZM114,86.6l8.1-4.6,9.6-6.1c2-1.3,4-2.5,6.1-3.7,5.1-2.9,10.6-4.4,15.5-8.3s7.2-7.9,9.4-12.7l-4.3-7c-.5.8-.7,1.4-1,2.1-2.3,4.5-5.3,8.2-8.9,11.7s-6.6,5.6-10.2,8.3l-4.4,3.3-5.8,4.5-11.5,9.8-4.2,3.6c.6-.2,1.1-.5,1.6-.8ZM87.1,108c.7-.3,1.2-.7,1.8-1l13.1-7,6.4-3.8c2.1-1.3,4.2-2.4,6.4-3.5l6.8-3.3,7.6-3.5c1.2-.5,2.3-1,3.5-1.6l4-1.8c5.8-2.6,11.2-5.7,16.4-9.5s6.4-5.1,8.7-8.6,4.7-6.3,1.8-11.8l-2.5,4.4c-2.4,4.2-7.2,8.7-11.6,10.8l-4.8,2.3c-3.5,1.7-6.8,3.3-10.1,5.3l-10.3,6.5-8.8,5-3.3,2.1-7,5c-3.6,2.6-6.9,5.4-10.6,7.8s-6.9,4.4-10.1,7.1l2.7-1ZM104.5,101.4l10.6-3.6,16.4-5.2c6.8-2.2,13.3-4.6,19.9-7.3s9.7-4.8,15.3-10.2,2.6-3.5,3.6-5.4c-1.3-1.6-2.6-3-3.3-4.9l-1.5-4c-1.6,2.7-3.3,5.3-5.4,7.7-4,4.4-13.7,10.9-19.1,13.3l-8.9,4.1-15.7,7.3c-2.6,1.2-4.9,2.7-7.4,4.1l-12,6.9,7.5-2.8ZM113.9,103.4c5.5-1.4,7.7-1,13.4-2.8l5.7-1.7c2.8-.9,5.4-2.2,8.2-3.3s5.5-1.9,8.1-3.4l5.9-3.2c2.6-1.4,5.1-2.6,7.6-4.1,5.3-3.2,8.1-4.4,12.3-9.4-1.1-1.7-2.3-3.2-3.7-4.6-.9.8-1.1,2-1.8,2.9-3.7,4.4-8.1,8.3-13.3,10.8s-12,5.2-18.4,7.3l-25.6,8.2-9.1,3.1c-5.5,1.9-8.3,3.7-13.4,5.5s-5.3,1.6-7.5,3.3c6.2-2.1,12-4.2,18.3-5.4s5.6-1.1,8.5-1.8l4.9-1.2ZM131.4,100.8c2.2-.3,4.2-.5,6.4-1l8.2-1.8c5.1-1.1,13.6-4.6,18.3-7.1l10.1-5.4c2.1-1.1,2.7-6.9,1.2-8.9-2.6,2.8-5.5,5.2-8.8,7.2l-8.6,5-5.7,3c-3.7,1.9-7.3,3.6-11.2,4.9s-4.5,2.2-7.5,3l-2.6,1.1ZM69.1,120.2l17.1-6.6c2.4-.9,4.7-1.6,7.1-2.2l4.2-1.1c5.2-1.3,10.3-.5,16.6-3.8,3.7-1.9,7.2-2,10.7-3.6-1.7-.1-3.1.2-4.6.4l-3.5.6-11.4,2.7-2.2.4c-4.3.8-8.5,1.8-12.7,3.1l-6.8,2.3-7.9,2.9-8.6,5.3c.6,0,1.2-.2,1.9-.4ZM63.2,123.7c1.9,0,3.3-1,4.8-1.6l9.4-3.3c4.7-1.6,9.4-2.6,14.3-3.7l6.2-1.5c4.4-1.1,8.5-2.5,12.8-3.9s8-2.8,12.1-4.6c-5.7.8-8.9,3.6-14.7,4.7s-2.2.6-3.4.7c-5.5.5-10.6,1.7-15.9,3.4s-8.2,3.1-12.4,4.7l-7.3,2.7c-2,.8-4,1.5-5.8,2.4Z"/>
</svg>