<?xml version="1.0" encoding="UTF-8"?>
<svg xmlns="http://www.w3.org/2000/svg" xmlns:xlink="http://www.w3.org/1999/xlink" viewBox="0 0 417 525">
<path fill-rule="nonzero" fill="#11464E" fill-opacity="1" d="M 243.375 396.042969 C 224.859375 430.492188 198.4375 473.480469 164.484375 491.910156 C 157.441406 495.769531 149.59375 498.167969 140.9375 499.128906 C 136.292969 499.605469 131.800781 498.976562 127.636719 497.210938 C 123.5 495.605469 120.933594 492.28125 119.808594 487.21875 C 119.796875 487.148438 119.78125 487.078125 119.773438 487.007812 C 118.664062 479.351562 119.957031 472.167969 123.625 465.308594 C 130.992188 452.007812 143.664062 440.625 156.964844 433.40625 C 173.316406 424.445312 189.824219 416.117188 206.480469 408.246094 L 215.464844 403.929688 C 221.875 400.875 228.4375 398.148438 235.503906 395.601562 C 237.347656 394.894531 239.191406 394.1875 241.066406 393.453125 C 242.667969 392.828125 244.1875 394.53125 243.375 396.042969 M 87.625 266.496094 C 73.445312 273.71875 61.898438 278.546875 52.726562 280.753906 C 52.695312 280.761719 52.664062 280.773438 52.632812 280.78125 C 48.304688 282.210938 44.007812 283.015625 39.707031 283.316406 C 39.078125 283.367188 38.46875 283.390625 37.839844 283.390625 C 34.128906 283.390625 30.417969 282.558594 26.710938 280.917969 C 22.128906 279.351562 16.617188 275.890625 16.152344 270.570312 C 16.136719 270.421875 16.140625 270.265625 16.160156 270.117188 C 17.503906 259.0625 36.5625 255.277344 45.613281 255.277344 C 49.144531 255.277344 52.679688 255.605469 56.214844 256.386719 C 68.109375 258.5625 78.417969 260.84375 87.238281 263.050781 C 88.894531 263.46875 89.148438 265.71875 87.625 266.496094 M 403.765625 157.429688 C 396.878906 143.019531 375.878906 141.25 361.621094 141.25 C 350.238281 141.25 338.878906 142.839844 327.800781 145.085938 C 323.15625 146.222656 320.128906 146.855469 318.839844 147.332031 C 300.894531 152.152344 283.40625 159.347656 267.378906 168.808594 C 248.476562 179.535156 233.410156 190.136719 221.699219 200.535156 C 210.164062 210.957031 201.988281 218.984375 197.34375 224.738281 C 196.386719 225.875 195.753906 226.65625 195.273438 227.136719 C 194.949219 227.464844 194.796875 227.640625 194.796875 227.792969 C 183.914062 239.652344 173.285156 255.390625 165.09375 270.015625 C 164.429688 271.207031 165.253906 272.671875 166.613281 272.757812 C 169.152344 272.914062 171.71875 272.992188 174.328125 272.992188 L 176.09375 272.992188 C 178.253906 272.925781 181.050781 272.714844 183.980469 272.433594 C 184.589844 272.375 185.125 272.015625 185.417969 271.480469 C 207.53125 230.992188 240.828125 196.550781 279.722656 171.863281 C 303.773438 155.988281 331.8125 144.457031 360.988281 144.457031 C 374.441406 144.457031 394.65625 146.046875 400.738281 160.003906 C 404.246094 168.179688 402.191406 178.355469 393.371094 189.808594 C 384.773438 200.96875 371.574219 210.945312 364.410156 215.398438 C 334.996094 233.683594 318.921875 242.582031 289.613281 253.546875 C 265.265625 262.65625 243.933594 268.839844 212.191406 274.257812 C 204.839844 275.511719 187.628906 277.492188 174.328125 278.042969 C 169.859375 278.042969 165.46875 277.8125 161.179688 277.359375 C 155.070312 276.753906 149.089844 275.695312 143.234375 274.179688 C 132.660156 271.453125 122.085938 268.25 111.332031 264.414062 C 108.855469 263.480469 107.957031 263.195312 107.066406 262.898438 C 105.683594 262.433594 104.15625 261.066406 105.289062 260.148438 C 110.089844 256.269531 115.550781 252.0625 119.472656 248.421875 C 119.496094 248.398438 119.523438 248.375 119.550781 248.355469 C 149.511719 224.300781 171.9375 187.949219 188.105469 153.515625 C 188.257812 153.011719 188.433594 152.53125 188.738281 152.230469 C 205.246094 116.164062 223.691406 79.769531 249.964844 49.964844 C 260.390625 37.800781 279.789062 24.191406 296.773438 24.191406 C 302.707031 24.191406 309.023438 25.636719 314.324219 30.128906 C 319.144531 34.621094 321.921875 37.949219 322.578125 43.554688 C 323.054688 49.15625 322.25 54.785156 320.332031 60.714844 C 312.632812 84.261719 297.894531 103.015625 278.992188 118.714844 C 266.953125 129.257812 254.363281 138.386719 240.355469 145.109375 C 238.269531 146.113281 239.585938 149.265625 241.777344 148.523438 C 253.636719 144.503906 264.527344 138.273438 275.128906 130.421875 C 299.660156 113.109375 318.714844 93.574219 327.851562 64.222656 C 330.90625 52.539062 329.945312 42.59375 324.824219 34.265625 C 319.863281 25.960938 311.714844 20.992188 300.554688 19.363281 C 300.496094 19.355469 300.4375 19.347656 300.382812 19.34375 C 298.796875 19.222656 297.234375 19.148438 295.671875 19.148438 C 287.644531 19.148438 279.621094 20.839844 271.59375 24.320312 C 244.515625 35.707031 222.253906 57.660156 207.667969 82.824219 C 197.875 99.332031 188.433594 116.316406 179.601562 133.476562 C 170.808594 150.285156 161.6875 166.917969 152.085938 183.398438 C 152.058594 183.449219 152.023438 183.496094 151.992188 183.542969 C 151.527344 184.164062 151.066406 184.941406 150.601562 185.71875 C 137.453125 208.789062 121.757812 230.441406 104.292969 250.457031 C 100.828125 254.488281 98.03125 257.625 95.742188 259.960938 C 95.277344 260.433594 94.597656 260.625 93.953125 260.457031 C 84.046875 257.84375 74.140625 255.527344 64.214844 253.359375 C 59.722656 252.398438 56.035156 251.742188 53.308594 251.441406 C 51.039062 251.113281 48.210938 250.933594 44.832031 250.933594 C 42.964844 250.933594 40.945312 250.984375 38.722656 251.113281 C 29.433594 251.59375 11.011719 259.289062 11.011719 270.824219 C 11.3125 275.796875 12.902344 278.386719 19.667969 282.835938 C 26.367188 285.957031 32.488281 287.175781 37.765625 287.328125 C 55.554688 287.328125 80.238281 275.46875 95.9375 267.464844 C 96.011719 267.417969 96.0625 267.390625 96.164062 267.390625 C 96.316406 267.390625 96.542969 267.464844 96.746094 267.464844 C 97.226562 267.617188 97.703125 267.769531 98.183594 268.097656 C 98.359375 268.097656 98.511719 268.25 98.511719 268.25 L 99.320312 268.578125 C 99.472656 268.726562 100.429688 269.058594 100.605469 269.058594 C 101.867188 269.6875 103.332031 270.191406 104.769531 270.671875 C 108.128906 271.933594 111.484375 273.222656 114.867188 274.355469 L 120.140625 276.425781 C 131.988281 280.824219 143.082031 284.003906 154.8125 285.675781 C 156.007812 285.84375 156.734375 287.074219 156.285156 288.191406 C 156.261719 288.257812 156.234375 288.320312 156.207031 288.390625 C 155.878906 289.195312 155.574219 290.003906 155.273438 290.8125 C 152.621094 297.902344 150.601562 305.148438 149.265625 312.566406 C 146.867188 325.085938 147.976562 337.25 152.472656 349.113281 C 155.664062 358.691406 162.691406 366.84375 170.976562 372.445312 C 171.039062 372.488281 171.105469 372.527344 171.171875 372.5625 C 180.429688 377.644531 190.164062 379.570312 200.398438 378.285156 C 210.644531 376.847656 219.78125 374.273438 227.957031 370.589844 C 240.585938 364.648438 252.730469 357.46875 262.695312 347.726562 C 264.144531 346.308594 266.484375 347.945312 265.667969 349.800781 L 265.613281 349.921875 C 261.144531 360.015625 256.328125 370.109375 251.203125 380.054688 C 248.628906 384.519531 244.941406 387.75 240.148438 389.972656 C 232.449219 393.507812 223.945312 397.191406 214.328125 401.050781 C 196.714844 408.246094 179.398438 416.117188 162.566406 424.269531 C 149.417969 430.859375 136.925781 438.707031 126.828125 449.609375 C 118.324219 458.570312 113.679688 470.433594 113.199219 482.621094 C 113.050781 487.367188 114.308594 491.988281 117.269531 496.410156 C 117.332031 496.503906 117.40625 496.597656 117.480469 496.679688 C 121.792969 501.425781 126.730469 504.257812 132.609375 505.058594 C 138.539062 505.867188 143.183594 506.015625 146.386719 505.6875 C 156.332031 504.90625 165.140625 502.179688 172.988281 497.359375 C 188.6875 487.59375 205.519531 473.007812 217.230469 458.570312 C 230.683594 444.15625 242.546875 427.957031 252.96875 410.339844 C 257.925781 401.078125 263.839844 392.59375 271.007812 384.910156 C 271.046875 384.871094 271.089844 384.828125 271.132812 384.789062 C 272.867188 383.222656 274.289062 381.804688 275.734375 380.683594 C 276.996094 379.574219 277.804688 379.09375 277.804688 379.09375 C 278.128906 378.769531 278.917969 378.128906 280.148438 377.359375 C 280.183594 377.339844 280.21875 377.316406 280.25 377.292969 C 284.101562 374.402344 288.722656 371.714844 292.871094 369.480469 C 294.964844 368.34375 295.925781 367.710938 295.75 367.535156 C 295.75 367.535156 295.117188 367.535156 293.980469 367.863281 C 292.882812 368.335938 291.46875 368.808594 289.875 369.457031 C 289.839844 369.472656 289.796875 369.484375 289.757812 369.496094 C 286.328125 370.535156 282.828125 372.050781 279.523438 373.777344 C 277.949219 374.597656 276.242188 372.945312 277.007812 371.339844 C 281.335938 362.230469 285.453125 353.085938 289.335938 343.835938 C 295.445312 329.070312 302.335938 314.8125 309.855469 300.882812 C 316.359375 288.851562 324.40625 277.796875 334.097656 267.683594 C 335.4375 266.28125 334.03125 264.003906 332.199219 264.632812 C 327.679688 266.179688 322.546875 268.589844 316.8125 271.820312 C 316.769531 271.84375 316.722656 271.871094 316.683594 271.898438 C 304.707031 279.589844 297.023438 289.671875 290.144531 301.992188 C 271.558594 333.058594 242.265625 363.320312 204.804688 368.480469 C 204.746094 368.488281 204.683594 368.496094 204.621094 368.5 C 196.492188 368.996094 190.289062 368.488281 185.960938 366.90625 C 181.644531 365.136719 179.074219 363.851562 178.289062 363.070312 C 170.113281 356.480469 165.46875 348.632812 164.660156 339.34375 C 163.851562 330.03125 164.964844 320.59375 168.167969 310.800781 C 170.289062 304.441406 172.710938 298.179688 175.386719 292.023438 C 175.742188 291.140625 176.121094 290.28125 176.5 289.421875 C 176.757812 288.835938 177.019531 288.261719 177.28125 287.6875 C 177.546875 287.101562 178.09375 286.699219 178.734375 286.625 C 182.667969 286.164062 191.804688 285.152344 198.0625 284.128906 C 217.03125 281.03125 229.5625 277.804688 242.386719 274.644531 C 287.441406 263.550781 312.839844 251.804688 357.546875 226.257812 C 360.71875 224.445312 363.433594 222.765625 367.558594 219.917969 C 374.226562 215.316406 379.234375 210.964844 387.390625 202.933594 C 394.597656 195.835938 398.898438 188.355469 402.328125 181.480469 C 406.667969 172.496094 407.148438 164.316406 403.765625 157.429688 "/>
</svg>
